<?xml version="1.0" encoding="utf-8"?>
<!-- Generator: Adobe Illustrator 18.1.1, SVG Export Plug-In . SVG Version: 6.00 Build 0)  -->
<svg version="1.1" id="Capa_1" xmlns="http://www.w3.org/2000/svg" xmlns:xlink="http://www.w3.org/1999/xlink" x="0px" y="0px"
	 width="28px" height="24px" viewBox="0 0 28 24" enable-background="new 0 0 28 24" xml:space="preserve">
<g>
	<path fill="#FFFFFF" d="M27.4,0.6C27,0.2,26.6,0,26,0H2C1.5,0,1,0.2,0.6,0.6C0.2,1,0,1.5,0,2v20c0,0.5,0.2,1,0.6,1.4S1.5,24,2,24
		h24c0.5,0,1-0.2,1.4-0.6C27.8,23,28,22.5,28,22V2C28,1.5,27.8,1,27.4,0.6 M4,1h6v2H4V1z M26,22H2v-2h24V22z M8,13
		c0-1.6,0.6-3.1,1.8-4.2S12.3,7,14,7s3.1,0.6,4.2,1.8S20,11.4,20,13c0,1.7-0.6,3.1-1.8,4.2C17.1,18.5,15.7,19,14,19
		s-3.1-0.6-4.2-1.8C8.6,16.1,8,14.7,8,13 M26,4.2V6H2V4h10.1l1-2H26V4.2z"/>
	<path fill="#FFFFFF" d="M16.8,15.9c0.8-0.8,1.2-1.7,1.2-2.8c0-1.1-0.4-2-1.2-2.8C16.1,9.4,15.1,9,14,9s-2.1,0.4-2.8,1.2
		C10.4,11,10,11.9,10,13c0,1.1,0.4,2.1,1.2,2.8c0.8,0.8,1.7,1.2,2.8,1.2S16.1,16.6,16.8,15.9 M12.9,11.9c-0.3,0.3-0.4,0.6-0.4,1.1
		c0,0.1-0.1,0.3-0.1,0.4c-0.1,0.1-0.2,0.1-0.4,0.1s-0.3-0.1-0.4-0.1c-0.1-0.1-0.1-0.2-0.1-0.4c0-0.7,0.2-1.3,0.7-1.8
		s1.1-0.7,1.8-0.7c0.1,0,0.3,0,0.4,0.1c0.1,0.1,0.1,0.2,0.1,0.4s-0.1,0.3-0.1,0.4c-0.1,0.1-0.2,0.1-0.4,0.1
		C13.6,11.5,13.2,11.6,12.9,11.9"/>
</g>
</svg>
