<?xml version="1.0" encoding="utf-8"?>
<!-- Generator: Adobe Illustrator 21.0.0, SVG Export Plug-In . SVG Version: 6.00 Build 0)  -->
<svg version="1.1" id="Capa_1" xmlns="http://www.w3.org/2000/svg" xmlns:xlink="http://www.w3.org/1999/xlink" x="0px" y="0px"
	 width="192px" height="42.115px" viewBox="0 0 192 42.115" style="enable-background:new 0 0 192 42.115;" xml:space="preserve">
<style type="text/css">
	.st0{fill-rule:evenodd;clip-rule:evenodd;fill:#FFFFFF;}
	.st1{fill:#FFFFFF;}
</style>
<g>
	<g>
		<g>
			<g>
				<path class="st0" d="M108.722,15.81c0,2.874-0.808,5.122-2.423,6.744c-1.615,1.622-3.859,2.433-6.731,2.433
					c-2.988,0-5.263-0.779-6.826-2.338c-1.563-1.558-2.344-3.838-2.344-6.839V1.053h1.565h1.581v14.519
					c0,2.166,0.513,3.812,1.538,4.937c1.025,1.126,2.521,1.688,4.486,1.688c1.966,0,3.458-0.562,4.478-1.688
					c1.02-1.125,1.529-2.771,1.529-4.937V1.053h1.565h1.581V15.81z"/>
			</g>
			<g>
				<path class="st0" d="M127.929,7.799c-0.137-1.471-0.717-2.607-1.739-3.406c-1.021-0.799-2.395-1.199-4.12-1.199
					c-1.778,0-3.128,0.344-4.049,1.031c-0.921,0.687-1.382,1.692-1.382,3.014c0,0.899,0.306,1.571,0.919,2.015
					c0.614,0.444,1.845,0.883,3.694,1.317l4.058,0.967c2.178,0.518,3.731,1.285,4.662,2.3c0.932,1.004,1.398,2.427,1.398,4.267
					c0,2.114-0.8,3.79-2.399,5.027c-1.6,1.237-3.767,1.856-6.501,1.856c-3.04,0-5.416-0.713-7.126-2.138
					c-1.668-1.404-2.502-3.325-2.502-5.763v-0.174h2.886c0.053,1.688,0.667,2.991,1.841,3.909c1.174,0.918,2.808,1.377,4.903,1.377
					c1.935,0,3.405-0.333,4.41-1c1.005-0.666,1.508-1.644,1.508-2.935c0-1.121-0.33-1.951-0.99-2.491
					c-0.656-0.529-1.979-1.031-3.968-1.507l-4.063-0.968c-2.052-0.486-3.518-1.163-4.396-2.03c-0.873-0.867-1.309-2.067-1.309-3.6
					c0-2.231,0.758-3.999,2.273-5.305c1.515-1.306,3.561-1.959,6.138-1.959c2.619,0,4.704,0.656,6.256,1.968
					c1.552,1.312,2.381,3.12,2.486,5.426H127.929z"/>
			</g>
			<g>
				<polygon class="st0" points="141.194,24.339 141.194,3.842 133.312,3.842 133.312,2.448 133.312,1.053 152.22,1.053 
					152.22,2.448 152.22,3.842 144.339,3.842 144.339,24.339 142.774,24.339 				"/>
			</g>
			<g>
				<polygon class="st0" points="155.089,24.339 155.089,1.053 156.654,1.053 158.235,1.053 158.235,21.549 170.04,21.549 
					170.04,22.944 170.04,24.339 				"/>
			</g>
			<g>
				<path class="st0" d="M171.087,24.339l8.789-23.285h1.792h1.808l8.36,23.285h-1.69h-1.691l-2.372-6.746h-9.301l-2.444,6.746
					h-1.617H171.087z M181.531,4.475l-3.746,10.329h7.33l-3.591-10.329H181.531z"/>
			</g>
		</g>
	</g>
	<g>
		<g>
			<g>
				<polygon class="st0" points="0.317,39.692 2.352,36.734 0.427,33.958 1.05,33.958 1.672,33.958 2.99,36 4.314,33.958 
					4.906,33.958 5.504,33.958 3.578,36.75 5.57,39.692 4.971,39.692 4.367,39.692 2.939,37.506 1.532,39.692 0.928,39.692 				"/>
			</g>
			<g>
				<path class="st0" d="M9.139,37.631h5.549v0.812H9.139V37.631z M9.139,35.417h5.549v0.811H9.139V35.417z"/>
			</g>
			<g>
				<path class="st0" d="M18.913,39.692v-5.734h0.482h0.483v5.734h-0.483H18.913z M18.902,31.809h0.987v1.096h-0.987V31.809z"/>
			</g>
			<g>
				<path class="st0" d="M21.306,39.692v-5.734h0.456h0.461V34.8l0.214-0.284c0.417-0.489,0.939-0.734,1.567-0.734
					c0.631,0,1.118,0.172,1.46,0.515c0.342,0.343,0.513,0.831,0.513,1.464v3.93h-0.482h-0.483v-3.605
					c0-0.504-0.097-0.868-0.291-1.091c-0.194-0.223-0.509-0.336-0.943-0.336c-0.463,0-0.83,0.177-1.101,0.529
					c-0.271,0.352-0.406,0.829-0.406,1.43v3.074h-0.482H21.306z"/>
			</g>
			<g>
				<path class="st0" d="M29.577,39.846c-0.767,0-1.378-0.287-1.831-0.86c-0.453-0.574-0.68-1.348-0.68-2.324
					c0-0.861,0.219-1.556,0.659-2.085c0.439-0.529,1.012-0.794,1.719-0.794c0.703,0,1.26,0.298,1.67,0.894l0.075,0.107V31.82h0.482
					h0.483v7.872h-0.445h-0.45v-0.783l-0.123,0.177C30.739,39.592,30.219,39.846,29.577,39.846z M29.631,34.649
					c-0.539,0-0.933,0.173-1.182,0.518c-0.25,0.345-0.375,0.894-0.375,1.645c0,0.709,0.135,1.254,0.404,1.637
					c0.269,0.382,0.654,0.575,1.153,0.575c0.468,0,0.844-0.177,1.129-0.529c0.286-0.353,0.428-0.818,0.428-1.398
					c0-0.783-0.135-1.387-0.404-1.811C30.515,34.861,30.131,34.649,29.631,34.649z"/>
			</g>
			<g>
				<path class="st0" d="M35.818,39.846c-0.811,0-1.448-0.257-1.912-0.772c-0.464-0.514-0.696-1.226-0.696-2.133
					c0-0.965,0.245-1.732,0.736-2.303c0.491-0.57,1.15-0.855,1.978-0.855c0.749,0,1.354,0.279,1.815,0.836
					c0.46,0.558,0.691,1.29,0.691,2.198l-0.011,0.343h-4.181c0.039,0.571,0.17,1.007,0.39,1.306
					c0.271,0.365,0.699,0.547,1.284,0.547c0.367,0,0.688-0.103,0.963-0.309c0.275-0.206,0.442-0.468,0.503-0.788h0.954
					c-0.143,0.627-0.429,1.106-0.857,1.435C37.045,39.681,36.493,39.846,35.818,39.846z M37.428,36.381
					c-0.029-0.531-0.161-0.945-0.396-1.241c-0.261-0.328-0.643-0.492-1.146-0.492c-0.507,0-0.912,0.189-1.216,0.567
					c-0.239,0.296-0.384,0.684-0.434,1.166H37.428z"/>
			</g>
			<g>
				<path class="st0" d="M39.496,33.958h0.456h0.461v0.814l0.048-0.069c0.414-0.614,0.958-0.92,1.633-0.92
					c0.749,0,1.343,0.259,1.78,0.775c0.437,0.517,0.655,1.214,0.655,2.093c0,0.997-0.22,1.779-0.661,2.345
					c-0.441,0.566-1.052,0.85-1.833,0.85c-0.646,0-1.16-0.248-1.542-0.744l-0.032-0.043v2.903h-0.483h-0.482V33.958z M41.985,39.013
					c0.503,0,0.884-0.191,1.144-0.572c0.26-0.381,0.39-0.937,0.39-1.667c0-0.719-0.125-1.252-0.374-1.597
					c-0.249-0.345-0.635-0.518-1.155-0.518c-0.531,0-0.919,0.195-1.163,0.585c-0.244,0.39-0.366,1.007-0.366,1.851
					c0,0.612,0.132,1.084,0.396,1.417C41.121,38.846,41.497,39.013,41.985,39.013z"/>
			</g>
			<g>
				<path class="st0" d="M47.996,39.846c-0.811,0-1.448-0.257-1.912-0.772c-0.464-0.514-0.696-1.226-0.696-2.133
					c0-0.965,0.245-1.732,0.736-2.303c0.491-0.57,1.15-0.855,1.978-0.855c0.75,0,1.355,0.279,1.815,0.836
					c0.46,0.558,0.691,1.29,0.691,2.198l-0.011,0.343h-4.181c0.039,0.571,0.169,1.007,0.39,1.306
					c0.271,0.365,0.699,0.547,1.284,0.547c0.367,0,0.688-0.103,0.963-0.309s0.442-0.468,0.503-0.788h0.954
					c-0.143,0.627-0.428,1.106-0.857,1.435C49.223,39.681,48.671,39.846,47.996,39.846z M49.606,36.381
					c-0.029-0.531-0.161-0.945-0.396-1.241c-0.26-0.328-0.642-0.492-1.146-0.492c-0.507,0-0.912,0.189-1.216,0.567
					c-0.239,0.296-0.384,0.684-0.434,1.166H49.606z"/>
			</g>
			<g>
				<path class="st0" d="M51.751,39.692v-5.734h0.456h0.461V34.8l0.214-0.284c0.417-0.489,0.94-0.734,1.567-0.734
					c0.631,0,1.118,0.172,1.46,0.515c0.342,0.343,0.513,0.831,0.513,1.464v3.93H55.94h-0.482v-3.605
					c0-0.504-0.097-0.868-0.291-1.091c-0.194-0.223-0.508-0.336-0.943-0.336c-0.463,0-0.83,0.177-1.101,0.529
					c-0.271,0.352-0.406,0.829-0.406,1.43v3.074h-0.482H51.751z"/>
			</g>
			<g>
				<path class="st0" d="M60.023,39.846c-0.768,0-1.378-0.287-1.831-0.86c-0.453-0.574-0.68-1.348-0.68-2.324
					c0-0.861,0.219-1.556,0.659-2.085c0.439-0.529,1.012-0.794,1.719-0.794c0.703,0,1.26,0.298,1.67,0.894l0.075,0.107V31.82h0.483
					h0.482v7.872h-0.445h-0.451v-0.783l-0.123,0.177C61.184,39.592,60.665,39.846,60.023,39.846z M60.077,34.649
					c-0.539,0-0.933,0.173-1.183,0.518c-0.249,0.345-0.374,0.894-0.374,1.645c0,0.709,0.135,1.254,0.404,1.637
					c0.269,0.382,0.654,0.575,1.153,0.575c0.467,0,0.844-0.177,1.129-0.529c0.285-0.353,0.428-0.818,0.428-1.398
					c0-0.783-0.135-1.387-0.404-1.811C60.961,34.861,60.577,34.649,60.077,34.649z"/>
			</g>
			<g>
				<path class="st0" d="M66.264,39.846c-0.81,0-1.448-0.257-1.912-0.772c-0.464-0.514-0.696-1.226-0.696-2.133
					c0-0.965,0.245-1.732,0.736-2.303c0.491-0.57,1.15-0.855,1.978-0.855c0.75,0,1.355,0.279,1.815,0.836
					c0.46,0.558,0.691,1.29,0.691,2.198l-0.011,0.343h-4.181c0.039,0.571,0.169,1.007,0.39,1.306
					c0.271,0.365,0.699,0.547,1.284,0.547c0.367,0,0.688-0.103,0.963-0.309c0.275-0.206,0.442-0.468,0.503-0.788h0.954
					c-0.143,0.627-0.429,1.106-0.857,1.435C67.491,39.681,66.939,39.846,66.264,39.846z M67.873,36.381
					c-0.029-0.531-0.161-0.945-0.396-1.241c-0.26-0.328-0.642-0.492-1.146-0.492c-0.507,0-0.912,0.189-1.216,0.567
					c-0.239,0.296-0.384,0.684-0.434,1.166H67.873z"/>
			</g>
			<g>
				<path class="st0" d="M70.018,39.692v-5.734h0.456h0.461V34.8l0.214-0.284c0.417-0.489,0.94-0.734,1.567-0.734
					c0.631,0,1.118,0.172,1.46,0.515c0.342,0.343,0.514,0.831,0.514,1.464v3.93h-0.483h-0.482v-3.605
					c0-0.504-0.097-0.868-0.291-1.091c-0.194-0.223-0.508-0.336-0.943-0.336c-0.463,0-0.83,0.177-1.101,0.529
					c-0.271,0.352-0.406,0.829-0.406,1.43v3.074h-0.482H70.018z"/>
			</g>
			<g>
				<path class="st0" d="M78.213,39.681c-0.329,0.051-0.569,0.077-0.72,0.077c-0.423,0-0.721-0.093-0.894-0.279
					c-0.174-0.186-0.261-0.506-0.261-0.961v-3.782h-0.79v-0.778h0.79v-1.601h0.965v1.601h0.91v0.778h-0.91v3.781
					c0,0.129,0.051,0.23,0.154,0.305c0.102,0.075,0.239,0.113,0.412,0.113h0.345V39.681z"/>
			</g>
			<g>
				<polygon class="st0" points="79.174,39.692 79.174,31.82 79.657,31.82 80.139,31.82 80.139,39.692 79.657,39.692 				"/>
			</g>
			<g>
				<path class="st0" d="M86.222,33.958l-2.179,5.923c-0.335,0.883-0.634,1.46-0.896,1.731c-0.262,0.272-0.656,0.407-1.18,0.407
					c-0.171,0.004-0.327-0.016-0.466-0.059v-0.896c0.146,0.054,0.33,0.082,0.552,0.086c0.218,0,0.4-0.09,0.546-0.269
					c0.146-0.179,0.312-0.514,0.498-1.004l0.017-0.091v0.003l-2.127-5.832h0.547h0.553l1.529,4.738l1.552-4.738h0.525H86.222z"/>
			</g>
			<g>
				<path class="st0" d="M92.426,39.846c-0.793,0-1.434-0.279-1.925-0.837c-0.491-0.558-0.736-1.29-0.736-2.194
					c0-0.907,0.245-1.639,0.736-2.196c0.491-0.558,1.133-0.836,1.925-0.836c0.8,0,1.445,0.278,1.934,0.836
					c0.489,0.557,0.734,1.289,0.734,2.196c0,0.905-0.245,1.636-0.734,2.194C93.87,39.567,93.225,39.846,92.426,39.846z
					 M92.426,39.013c0.507,0,0.91-0.199,1.209-0.596c0.299-0.396,0.449-0.931,0.449-1.603c0-0.671-0.15-1.205-0.449-1.602
					c-0.3-0.398-0.703-0.597-1.209-0.597c-0.506,0-0.908,0.199-1.206,0.597c-0.298,0.397-0.447,0.931-0.447,1.602
					c0,0.672,0.149,1.206,0.447,1.603C91.517,38.814,91.919,39.013,92.426,39.013z"/>
			</g>
			<g>
				<path class="st0" d="M96.313,39.692v-5.734h0.456h0.461v0.979c0.082-0.154,0.169-0.294,0.262-0.418
					c0.364-0.491,0.813-0.736,1.344-0.736c0.089,0,0.18,0.016,0.273,0.048v0.988l-0.198-0.005c-0.521,0-0.924,0.157-1.208,0.469
					c-0.284,0.313-0.425,0.758-0.425,1.337v3.073h-0.483H96.313z"/>
			</g>
			<g>
				<path class="st0" d="M101.921,41.315c0.552,0,0.973-0.175,1.261-0.523c0.289-0.348,0.433-0.856,0.433-1.525V39.08l-0.005,0.005
					c-0.396,0.507-0.914,0.76-1.552,0.76c-0.767,0-1.378-0.287-1.83-0.86c-0.454-0.574-0.68-1.348-0.68-2.324
					c0-0.861,0.223-1.556,0.669-2.085c0.446-0.529,1.029-0.794,1.75-0.794c0.689,0,1.235,0.298,1.638,0.894l0.07,0.102v-0.82h0.906
					v5.311c-0.003,0.968-0.221,1.685-0.653,2.149c-0.432,0.464-1.095,0.696-1.99,0.696c-0.65,0-1.165-0.149-1.546-0.449
					c-0.382-0.3-0.612-0.735-0.691-1.305h0.987c0.057,0.305,0.193,0.54,0.409,0.706C101.311,41.232,101.586,41.315,101.921,41.315z
					 M102.106,34.66c-0.538,0-0.932,0.172-1.179,0.516c-0.248,0.343-0.372,0.889-0.372,1.637c0,0.705,0.135,1.248,0.404,1.629
					c0.269,0.381,0.652,0.572,1.147,0.572c0.467,0,0.843-0.175,1.129-0.526c0.285-0.35,0.428-0.814,0.428-1.39
					c0-0.812-0.13-1.421-0.388-1.827C103.016,34.863,102.627,34.66,102.106,34.66z"/>
			</g>
			<g>
				<path class="st0" d="M107.419,39.846c-0.561,0-1.006-0.15-1.334-0.45c-0.329-0.299-0.494-0.705-0.494-1.215
					c0-0.514,0.155-0.923,0.464-1.227c0.309-0.303,0.76-0.493,1.353-0.568l1.313-0.166c0.107-0.011,0.209-0.028,0.305-0.054
					c0.125-0.032,0.222-0.097,0.29-0.194c0.068-0.097,0.102-0.219,0.102-0.366v-0.048c0-0.309-0.117-0.55-0.349-0.724
					c-0.233-0.174-0.556-0.261-0.972-0.261c-0.396,0-0.705,0.092-0.929,0.276c-0.223,0.183-0.358,0.457-0.404,0.82h-0.888
					c0.046-0.626,0.268-1.097,0.664-1.412c0.396-0.315,0.963-0.473,1.701-0.473c0.698,0,1.23,0.151,1.594,0.453
					c0.365,0.302,0.548,0.742,0.548,1.321v3.152c0,0.096,0.029,0.174,0.089,0.233c0.059,0.059,0.139,0.088,0.24,0.088
					c0.028,0,0.071-0.003,0.127-0.011c0.056-0.007,0.116-0.018,0.18-0.032v0.697c-0.094,0.036-0.192,0.064-0.296,0.086
					c-0.104,0.021-0.192,0.032-0.263,0.032c-0.365,0-0.63-0.1-0.795-0.3c-0.107-0.132-0.184-0.319-0.231-0.562
					c-0.071,0.089-0.154,0.175-0.247,0.257C108.706,39.63,108.116,39.846,107.419,39.846z M109.419,37.422v-0.624
					c-0.179,0.086-0.377,0.144-0.595,0.177l-0.884,0.129c-0.464,0.064-0.804,0.173-1.018,0.325
					c-0.215,0.153-0.322,0.359-0.322,0.622c0,0.323,0.088,0.571,0.262,0.745c0.176,0.174,0.423,0.26,0.745,0.26
					c0.507,0,0.935-0.138,1.286-0.414c0.239-0.194,0.398-0.413,0.477-0.656c0.015-0.046,0.025-0.12,0.032-0.22
					C109.413,37.662,109.419,37.547,109.419,37.422z"/>
			</g>
			<g>
				<path class="st0" d="M111.999,39.692v-5.734h0.456h0.461V34.8l0.214-0.284c0.417-0.489,0.939-0.734,1.567-0.734
					c0.631,0,1.117,0.172,1.46,0.515c0.342,0.343,0.514,0.831,0.514,1.464v3.93h-0.482h-0.483v-3.605
					c0-0.504-0.097-0.868-0.291-1.091c-0.194-0.223-0.509-0.336-0.943-0.336c-0.463,0-0.83,0.177-1.101,0.529
					c-0.27,0.352-0.406,0.829-0.406,1.43v3.074h-0.483H111.999z"/>
			</g>
			<g>
				<path class="st0" d="M118.121,39.692v-5.734h0.482h0.483v5.734h-0.483H118.121z M118.11,31.809h0.987v1.096h-0.987V31.809z"/>
			</g>
			<g>
				<polygon class="st0" points="120.141,38.94 123.58,34.759 120.393,34.759 120.393,34.358 120.393,33.958 124.867,33.958 
					124.867,34.331 124.867,34.71 121.428,38.892 124.943,38.892 124.943,39.292 124.943,39.692 120.141,39.692 120.141,39.319 				
					"/>
			</g>
			<g>
				<path class="st0" d="M128.318,39.846c-0.811,0-1.448-0.257-1.912-0.772c-0.464-0.514-0.696-1.226-0.696-2.133
					c0-0.965,0.245-1.732,0.735-2.303c0.491-0.57,1.151-0.855,1.978-0.855c0.75,0,1.355,0.279,1.815,0.836
					c0.46,0.558,0.691,1.29,0.691,2.198l-0.012,0.343h-4.181c0.039,0.571,0.169,1.007,0.39,1.306
					c0.271,0.365,0.699,0.547,1.284,0.547c0.367,0,0.688-0.103,0.963-0.309s0.442-0.468,0.503-0.788h0.954
					c-0.143,0.627-0.429,1.106-0.857,1.435C129.545,39.681,128.993,39.846,128.318,39.846z M129.928,36.381
					c-0.028-0.531-0.16-0.945-0.396-1.241c-0.26-0.328-0.643-0.492-1.146-0.492c-0.507,0-0.913,0.189-1.216,0.567
					c-0.239,0.296-0.383,0.684-0.433,1.166H129.928z"/>
			</g>
			<g>
				<path class="st0" d="M134.255,39.846c-0.767,0-1.378-0.287-1.831-0.86c-0.454-0.574-0.68-1.348-0.68-2.324
					c0-0.861,0.219-1.556,0.658-2.085c0.439-0.529,1.012-0.794,1.719-0.794c0.703,0,1.26,0.298,1.671,0.894l0.075,0.107V31.82h0.482
					h0.482v7.872h-0.445h-0.451v-0.783l-0.123,0.177C135.417,39.592,134.898,39.846,134.255,39.846z M134.31,34.649
					c-0.539,0-0.933,0.173-1.183,0.518c-0.25,0.345-0.375,0.894-0.375,1.645c0,0.709,0.135,1.254,0.404,1.637
					c0.269,0.382,0.654,0.575,1.153,0.575c0.467,0,0.844-0.177,1.129-0.529c0.285-0.353,0.428-0.818,0.428-1.398
					c0-0.783-0.135-1.387-0.404-1.811C135.194,34.861,134.809,34.649,134.31,34.649z"/>
			</g>
			<g>
				<polygon class="st0" points="143.312,39.692 143.312,32.763 140.647,32.763 140.647,32.292 140.647,31.82 147.04,31.82 
					147.04,32.292 147.04,32.763 144.376,32.763 144.376,39.692 143.846,39.692 				"/>
			</g>
			<g>
				<polygon class="st0" points="148.12,39.692 148.12,31.82 153.877,31.82 153.877,32.292 153.877,32.763 149.184,32.763 
					149.184,35.164 153.471,35.164 153.471,35.636 153.471,36.107 149.184,36.107 149.184,38.749 153.931,38.749 153.931,39.221 
					153.931,39.692 				"/>
			</g>
			<g>
				<path class="st0" d="M155.367,39.692V31.82h0.53h2.703c0.999,0,1.794,0.356,2.384,1.069c0.591,0.712,0.886,1.669,0.886,2.873
					c0,1.199-0.302,2.154-0.907,2.865c-0.605,0.71-1.421,1.065-2.448,1.065h-2.617H155.367z M156.431,38.782h1.949
					c0.764,0,1.353-0.262,1.769-0.787c0.416-0.525,0.624-1.269,0.624-2.233c0-0.968-0.2-1.715-0.6-2.242
					c-0.399-0.527-0.967-0.79-1.702-0.79h-2.04V38.782z"/>
			</g>
			<g>
				<path class="st0" d="M168.492,39.846c-0.811,0-1.449-0.257-1.912-0.772c-0.464-0.514-0.697-1.226-0.697-2.133
					c0-0.965,0.245-1.732,0.736-2.303c0.491-0.57,1.15-0.855,1.978-0.855c0.749,0,1.354,0.279,1.815,0.836
					c0.46,0.558,0.691,1.29,0.691,2.198l-0.011,0.343h-4.182c0.04,0.571,0.17,1.007,0.391,1.306
					c0.271,0.365,0.698,0.547,1.284,0.547c0.367,0,0.688-0.103,0.963-0.309c0.274-0.206,0.442-0.468,0.502-0.788h0.954
					c-0.142,0.627-0.428,1.106-0.857,1.435C169.718,39.681,169.167,39.846,168.492,39.846z M170.101,36.381
					c-0.028-0.531-0.161-0.945-0.396-1.241c-0.261-0.328-0.643-0.492-1.146-0.492c-0.507,0-0.912,0.189-1.215,0.567
					c-0.239,0.296-0.384,0.684-0.434,1.166H170.101z"/>
			</g>
			<g>
				<polygon class="st0" points="171.621,33.958 172.184,33.958 172.747,33.958 174.283,38.651 174.282,38.651 175.87,33.958 
					176.399,33.958 176.932,33.958 174.796,39.692 174.282,39.692 173.763,39.692 				"/>
			</g>
			<g>
				<path class="st0" d="M180.051,39.846c-0.811,0-1.448-0.257-1.912-0.772c-0.464-0.514-0.697-1.226-0.697-2.133
					c0-0.965,0.245-1.732,0.736-2.303c0.491-0.57,1.15-0.855,1.978-0.855c0.75,0,1.354,0.279,1.815,0.836
					c0.46,0.558,0.691,1.29,0.691,2.198l-0.011,0.343h-4.181c0.039,0.571,0.169,1.007,0.39,1.306
					c0.271,0.365,0.699,0.547,1.284,0.547c0.368,0,0.689-0.103,0.963-0.309c0.275-0.206,0.442-0.468,0.503-0.788h0.954
					c-0.143,0.627-0.429,1.106-0.857,1.435C181.278,39.681,180.726,39.846,180.051,39.846z M181.661,36.381
					c-0.029-0.531-0.16-0.945-0.396-1.241c-0.26-0.328-0.642-0.492-1.145-0.492c-0.507,0-0.913,0.189-1.216,0.567
					c-0.239,0.296-0.384,0.684-0.434,1.166H181.661z"/>
			</g>
			<g>
				<path class="st0" d="M183.806,39.692v-5.734h0.456h0.46V34.8l0.215-0.284c0.417-0.489,0.939-0.734,1.567-0.734
					c0.631,0,1.118,0.172,1.46,0.515c0.342,0.343,0.513,0.831,0.513,1.464v3.93h-0.482h-0.483v-3.605
					c0-0.504-0.097-0.868-0.291-1.091c-0.194-0.223-0.509-0.336-0.943-0.336c-0.463,0-0.83,0.177-1.101,0.529
					c-0.271,0.352-0.406,0.829-0.406,1.43v3.074h-0.483H183.806z"/>
			</g>
			<g>
				<path class="st0" d="M192,39.681c-0.329,0.051-0.569,0.077-0.72,0.077c-0.422,0-0.721-0.093-0.894-0.279
					c-0.174-0.186-0.26-0.506-0.26-0.961v-3.782h-0.79v-0.778h0.79v-1.601h0.965v1.601H192v0.778h-0.91v3.781
					c0,0.129,0.052,0.23,0.154,0.305c0.102,0.075,0.239,0.113,0.412,0.113H192V39.681z"/>
			</g>
		</g>
	</g>
	<g>
		<g>
			<g>
				<path class="st1" d="M7.044,6.489H0V0.048h21.825v6.441h-7.041v18.689H7.044V6.489z"/>
			</g>
			<g>
				<path class="st1" d="M23.028,0.048h21.187v6.441H30.773V9.62h13.442v5.985H30.773v3.132h13.446v6.44h-21.19V0.048z"/>
			</g>
			<g>
				<path class="st1" d="M45.518,0.048h12.709c8.377,0,11.338,6.194,11.338,12.528c0,7.71-4.084,12.602-12.85,12.602H45.518V0.048z
					 M53.262,18.737h3.029c4.824,0,5.53-3.908,5.53-6.269c0-1.581-0.496-5.979-6.094-5.979h-2.465V18.737z"/>
			</g>
		</g>
		<g>
			<g>
				<path class="st1" d="M80.692,15.494l-2.362-3.916l-2.304,3.916h-5.674l5.387-7.919L70.552,0h5.676l2.102,3.744L80.492,0h5.675
					l-5.185,7.575l5.387,7.919H80.692z"/>
			</g>
		</g>
	</g>
</g>
</svg>
