<svg id="Capa_1" data-name="Capa 1" xmlns="http://www.w3.org/2000/svg" width="782.572" height="173.65" viewBox="0 0 782.572 173.65"><defs><style>.cls-1{fill:#c33c35;}.cls-2{fill:#070308;}</style></defs><title>TEDX_UST</title><path class="cls-1" d="M10.6,152.82,3.038,141.915h7.211l4.05,6.009,4.006-6.009h6.988l-7.567,10.771,8.5,12.24h-7.21l-4.807-7.255L9.4,164.927H2.326Z"/><path class="cls-2" d="M56.18,151.307H33.7v-4.763H56.18Zm0,9.525H33.7v-4.763H56.18Z"/><path class="cls-2" d="M73.4,138.355h-6.32v-5.208H73.4Zm-6.32,3.56H73.4v23.012h-6.32Z"/><path class="cls-2" d="M77.5,141.915h6.009v3.2h.133a8.208,8.208,0,0,1,7.033-3.828c6.721,0,8.412,3.783,8.412,9.48v14.154h-6.32v-13c0-3.783-1.113-5.652-4.05-5.652-3.427,0-4.9,1.914-4.9,6.587v12.062H77.5Z"/><path class="cls-2" d="M119.424,161.989h-.089c-1.469,2.492-4.05,3.56-6.988,3.56-6.943,0-10.326-5.964-10.326-12.329,0-6.187,3.427-11.929,10.193-11.929a8.05,8.05,0,0,1,6.854,3.427h.045V133.147h6.32v31.78h-6.009ZM113.9,146.055c-4.14,0-5.564,3.56-5.564,7.344,0,3.6,1.647,7.388,5.564,7.388,4.184,0,5.43-3.649,5.43-7.433C119.335,149.615,118,146.055,113.9,146.055Z"/><path class="cls-2" d="M134.511,154.957c.178,4.006,2.136,5.831,5.653,5.831,2.537,0,4.584-1.558,4.985-2.982h5.564c-1.781,5.43-5.564,7.745-10.771,7.745-7.255,0-11.75-4.985-11.75-12.106,0-6.9,4.762-12.151,11.75-12.151,7.833,0,11.617,6.587,11.172,13.664Zm10.282-4.006c-.579-3.2-1.958-4.9-5.03-4.9a4.98,4.98,0,0,0-5.252,4.9Z"/><path class="cls-2" d="M153.959,141.915h6.009v2.938h.089a7.656,7.656,0,0,1,6.854-3.561c7.21,0,10.46,5.831,10.46,12.373,0,6.143-3.383,11.884-10.1,11.884a8.167,8.167,0,0,1-6.9-3.472h-.089v10.949h-6.321Zm17.092,11.573c0-3.65-1.469-7.433-5.519-7.433-4.139,0-5.475,3.694-5.475,7.433s1.424,7.3,5.519,7.3C169.716,160.787,171.051,157.227,171.051,153.488Z"/><path class="cls-2" d="M185.471,154.957c.178,4.006,2.136,5.831,5.653,5.831,2.537,0,4.584-1.558,4.985-2.982h5.564c-1.781,5.43-5.564,7.745-10.772,7.745-7.255,0-11.75-4.985-11.75-12.106,0-6.9,4.762-12.151,11.75-12.151,7.834,0,11.617,6.587,11.172,13.664Zm10.282-4.006c-.579-3.2-1.959-4.9-5.03-4.9a4.98,4.98,0,0,0-5.252,4.9Z"/><path class="cls-2" d="M204.919,141.915h6.009v3.2h.133a8.208,8.208,0,0,1,7.033-3.828c6.721,0,8.412,3.783,8.412,9.48v14.154h-6.32v-13c0-3.783-1.113-5.652-4.05-5.652-3.427,0-4.9,1.914-4.9,6.587v12.062h-6.321Z"/><path class="cls-2" d="M246.846,161.989h-.089c-1.469,2.492-4.05,3.56-6.988,3.56-6.943,0-10.326-5.964-10.326-12.329,0-6.187,3.427-11.929,10.193-11.929a8.05,8.05,0,0,1,6.854,3.427h.044V133.147h6.32v31.78h-6.009Zm-5.519-15.935c-4.14,0-5.564,3.56-5.564,7.344,0,3.6,1.647,7.388,5.564,7.388,4.184,0,5.43-3.649,5.43-7.433C246.757,149.615,245.421,146.055,241.327,146.055Z"/><path class="cls-2" d="M261.933,154.957c.178,4.006,2.136,5.831,5.653,5.831,2.537,0,4.584-1.558,4.985-2.982h5.564c-1.781,5.43-5.564,7.745-10.771,7.745-7.255,0-11.75-4.985-11.75-12.106,0-6.9,4.762-12.151,11.75-12.151,7.833,0,11.617,6.587,11.172,13.664Zm10.282-4.006c-.579-3.2-1.959-4.9-5.03-4.9a4.98,4.98,0,0,0-5.252,4.9Z"/><path class="cls-2" d="M281.381,141.915h6.009v3.2h.133a8.208,8.208,0,0,1,7.033-3.828c6.721,0,8.412,3.783,8.412,9.48v14.154h-6.32v-13c0-3.783-1.113-5.652-4.05-5.652-3.427,0-4.9,1.914-4.9,6.587v12.062h-6.321Z"/><path class="cls-2" d="M314.9,141.915h4.629v4.228H314.9v11.395c0,2.137.534,2.67,2.67,2.67a9.738,9.738,0,0,0,1.958-.178v4.94a24.223,24.223,0,0,1-3.694.223c-3.872,0-7.255-.89-7.255-5.475V146.144h-3.828v-4.228h3.828v-6.9H314.9Z"/><path class="cls-2" d="M321.837,133.147h6.32v31.78h-6.32Z"/><path class="cls-2" d="M343.6,167.82c-1.38,3.695-3.56,5.208-7.923,5.208a37.561,37.561,0,0,1-3.872-.223V167.6a33.528,33.528,0,0,0,3.694.223c2.181-.223,2.893-2.493,2.181-4.317l-8.1-21.587h6.766l5.207,15.757h.089l5.03-15.757h6.543Z"/><path class="cls-2" d="M377.116,141.292c7.255,0,11.929,4.807,11.929,12.151,0,7.3-4.674,12.106-11.929,12.106-7.211,0-11.884-4.807-11.884-12.106C365.232,146.1,369.905,141.292,377.116,141.292Zm0,19.5c4.317,0,5.608-3.694,5.608-7.344,0-3.694-1.29-7.389-5.608-7.389-4.273,0-5.564,3.694-5.564,7.389C371.552,157.093,372.843,160.787,377.116,160.787Z"/><path class="cls-2" d="M391.357,141.915h6.009v4.273h.089a8.137,8.137,0,0,1,7.344-4.9,4.7,4.7,0,0,1,1.379.223v5.875a11.554,11.554,0,0,0-2.27-.222c-4.629,0-6.231,3.338-6.231,7.389v10.371h-6.321Z"/><path class="cls-2" d="M429.9,163.458c0,3.783-1.335,10.192-11.929,10.192-4.54,0-9.836-2.136-10.148-7.388H414.1c.579,2.359,2.492,3.161,4.718,3.161,3.517,0,5.119-2.4,5.074-5.7V160.7H423.8a7.775,7.775,0,0,1-6.9,3.561c-6.9,0-9.837-5.253-9.837-11.573,0-5.964,3.427-11.394,9.881-11.394,3.026,0,5.341,1.024,6.854,3.694h.089v-3.071H429.9Zm-6.009-10.326c0-3.739-1.291-7.077-5.386-7.077-3.561,0-5.119,3.116-5.119,6.543,0,3.293,1.246,6.9,5.119,6.9C422.112,159.5,423.892,156.425,423.892,153.132Z"/><path class="cls-2" d="M432.926,148.992c.356-5.92,5.652-7.7,10.815-7.7,4.585,0,10.1,1.024,10.1,6.543v11.973c0,2.092.223,4.184.8,5.119h-6.41a9.39,9.39,0,0,1-.445-2.226,10.553,10.553,0,0,1-7.745,2.849c-4.362,0-7.834-2.181-7.834-6.9,0-5.207,3.917-6.454,7.834-6.988,3.873-.579,7.478-.445,7.478-3.026,0-2.715-1.87-3.116-4.1-3.116-2.4,0-3.961.979-4.184,3.472Zm14.6,4.673c-1.068.935-3.294.98-5.252,1.335-1.958.4-3.739,1.068-3.739,3.383,0,2.359,1.825,2.938,3.873,2.938,4.94,0,5.119-3.917,5.119-5.3Z"/><path class="cls-2" d="M457.85,141.915h6.009v3.2h.133a8.208,8.208,0,0,1,7.033-3.828c6.721,0,8.412,3.783,8.412,9.48v14.154h-6.32v-13c0-3.783-1.113-5.652-4.05-5.652-3.427,0-4.9,1.914-4.9,6.587v12.062H457.85Z"/><path class="cls-2" d="M488.96,138.355h-6.32v-5.208h6.32Zm-6.32,3.56h6.32v23.012h-6.32Z"/><path class="cls-2" d="M491.63,160.164,503.6,146.678H492.52v-4.763h19.406v4.763l-11.973,13.486h12.818v4.763H491.63Z"/><path class="cls-2" d="M520.471,154.957c.178,4.006,2.137,5.831,5.652,5.831,2.537,0,4.585-1.558,4.985-2.982h5.564c-1.78,5.43-5.564,7.745-10.772,7.745-7.255,0-11.75-4.985-11.75-12.106,0-6.9,4.763-12.151,11.75-12.151,7.834,0,11.617,6.587,11.173,13.664Zm10.281-4.006c-.578-3.2-1.958-4.9-5.029-4.9a4.98,4.98,0,0,0-5.252,4.9Z"/><path class="cls-2" d="M556.345,161.989h-.09c-1.469,2.492-4.05,3.56-6.987,3.56-6.944,0-10.327-5.964-10.327-12.329,0-6.187,3.428-11.929,10.193-11.929a8.05,8.05,0,0,1,6.854,3.427h.044V133.147h6.321v31.78h-6.009Zm-5.52-15.935c-4.14,0-5.563,3.56-5.563,7.344,0,3.6,1.647,7.388,5.563,7.388,4.184,0,5.43-3.649,5.43-7.433C556.255,149.615,554.92,146.055,550.826,146.055Z"/><path class="cls-2" d="M585.407,139.022h-9.524v-5.875H601.92v5.875h-9.525v25.9h-6.988Z"/><path class="cls-2" d="M604.677,133.147h23.769v5.875h-16.78v6.81h15.4v5.43h-15.4v7.789H628.8v5.875H604.677Z"/><path class="cls-2" d="M631.738,133.147h13.709c8.234,0,14.421,5.164,14.421,15.712,0,9.213-4.718,16.068-14.421,16.068H631.738Zm6.988,25.9h6.231c4.05,0,7.923-2.492,7.923-9.525,0-6.41-2.226-10.5-9.17-10.5h-4.984Z"/><path class="cls-2" d="M679.85,154.957c.178,4.006,2.137,5.831,5.652,5.831,2.537,0,4.585-1.558,4.985-2.982h5.563c-1.78,5.43-5.563,7.745-10.771,7.745-7.255,0-11.75-4.985-11.75-12.106,0-6.9,4.763-12.151,11.75-12.151,7.834,0,11.617,6.587,11.173,13.664Zm10.281-4.006c-.578-3.2-1.958-4.9-5.029-4.9a4.98,4.98,0,0,0-5.252,4.9Z"/><path class="cls-2" d="M711.139,164.927h-7.033l-7.878-23.012h6.632l4.852,15.712h.089l4.851-15.712h6.276Z"/><path class="cls-2" d="M724.98,154.957c.178,4.006,2.137,5.831,5.652,5.831,2.537,0,4.585-1.558,4.985-2.982h5.563c-1.78,5.43-5.563,7.745-10.771,7.745-7.255,0-11.75-4.985-11.75-12.106,0-6.9,4.763-12.151,11.75-12.151,7.834,0,11.617,6.587,11.172,13.664Zm10.281-4.006c-.578-3.2-1.958-4.9-5.029-4.9a4.98,4.98,0,0,0-5.252,4.9Z"/><path class="cls-2" d="M744.429,141.915h6.009v3.2h.134a8.208,8.208,0,0,1,7.032-3.828c6.722,0,8.413,3.783,8.413,9.48v14.154H759.7v-13c0-3.783-1.113-5.652-4.051-5.652-3.428,0-4.9,1.914-4.9,6.587v12.062h-6.32Z"/><path class="cls-2" d="M777.943,141.915h4.629v4.228h-4.629v11.395c0,2.137.534,2.67,2.671,2.67a9.723,9.723,0,0,0,1.958-.178v4.94a24.2,24.2,0,0,1-3.694.223c-3.872,0-7.255-.89-7.255-5.475V146.144h-3.828v-4.228h3.828v-6.9h6.32Z"/><path class="cls-1" d="M29.655,28H0V.884H91.879V28H62.236v78.7H29.655Z"/><path class="cls-1" d="M96.943.884h89.192V28h-56.59V41.191h56.59v25.2h-56.59V79.581h56.6V106.7H96.943Z"/><path class="cls-1" d="M191.622.884h53.5c35.266,0,47.729,26.085,47.729,52.753,0,32.466-17.191,53.063-54.1,53.063H191.622Zm32.6,78.7h12.75c20.309,0,23.278-16.456,23.278-26.4C260.25,46.528,258.164,28,234.6,28H224.222Z"/><path class="cls-1" d="M339.7,65.923l-9.945-16.492-9.7,16.492H296.167l22.677-33.346L297.009.681H320.9l8.849,15.767,9.1-15.767h23.888l-21.829,31.9,22.677,33.346Z"/><path class="cls-2" d="M408.479,2.493V63.677q0,10.783,4.076,17.924,6.044,10.783,20.376,10.781,17.183,0,23.364-11.657,3.327-6.333,3.328-17.048V2.493h13.544V58.084q0,18.262-4.936,28.1-9.062,17.925-34.214,17.924T399.871,86.183q-4.937-9.836-4.936-28.1V2.493Z"/><path class="cls-2" d="M502.411,69.539q.455,8.424,3.829,13.679,6.426,9.839,22.653,9.838A38.746,38.746,0,0,0,542.135,90.9q11.553-4.176,11.554-14.959,0-8.086-4.9-11.522-4.963-3.368-15.536-5.862l-12.99-3.032q-12.729-2.963-18.017-6.536-9.139-6.2-9.139-18.53,0-13.342,8.983-21.9T527.537,0q15.147,0,25.737,7.514t10.59,24.021h-12.6q-.97-7.95-4.135-12.2-5.878-7.748-19.962-7.749-11.371,0-16.346,4.986a15.917,15.917,0,0,0-4.974,11.59q0,7.277,5.876,10.646,3.852,2.158,17.432,5.391L542.6,47.37q9.729,2.292,15.017,6.267,9.141,6.942,9.141,20.147,0,16.443-11.664,23.517t-27.107,7.075q-18.007,0-28.191-9.434-10.191-9.365-9.988-25.4Z"/><path class="cls-2" d="M657.661,2.493V14.285H624.306v87.193H610.762V14.285H577.408V2.493Z"/></svg>