<?xml version="1.0" encoding="utf-8"?>
<!-- Generator: Adobe Illustrator 21.0.0, SVG Export Plug-In . SVG Version: 6.00 Build 0)  -->
<svg version="1.1" id="Capa_1" xmlns="http://www.w3.org/2000/svg" xmlns:xlink="http://www.w3.org/1999/xlink" x="0px" y="0px"
	 width="222px" height="49.3px" viewBox="0 0 222 49.3" style="enable-background:new 0 0 222 49.3;" xml:space="preserve">
<style type="text/css">
	.st0{fill:#FFFFFF;}
</style>
<g>
	<title>TEDX_USTfooter</title>
	<path class="st0" d="M3,43.4l-2.2-3.1h2L4.1,42l1.1-1.7h2L5,43.3l2.4,3.5h-2L4,44.7l-1.4,2.1h-2L3,43.4z"/>
	<path class="st0" d="M15.9,42.9H9.6v-1.4h6.4V42.9z M15.9,45.6H9.6v-1.4h6.4V45.6z"/>
	<path class="st0" d="M20.8,39.3H19v-1.5h1.8V39.3z M19,40.3h1.8v6.5H19V40.3z"/>
	<path class="st0" d="M22,40.3h1.7v0.9h0c0.4-0.7,1.2-1.1,2-1.1c1.9,0,2.4,1.1,2.4,2.7v4h-1.8v-3.7c0-1.1-0.3-1.6-1.2-1.6
		c-1,0-1.4,0.5-1.4,1.9v3.4H22L22,40.3L22,40.3z"/>
	<path class="st0" d="M33.9,46L33.9,46c-0.5,0.7-1.2,1-2,1c-2,0-2.9-1.7-2.9-3.5c0-1.8,1-3.4,2.9-3.4c0.8,0,1.5,0.3,2,1l0,0v-3.3
		h1.8v9h-1.7V46z M32.3,41.5c-1.2,0-1.6,1-1.6,2.1c0,1,0.5,2.1,1.6,2.1c1.2,0,1.5-1,1.5-2.1C33.8,42.5,33.5,41.5,32.3,41.5z"/>
	<path class="st0" d="M38.2,44c0.1,1.1,0.6,1.6,1.6,1.6c0.7,0,1.3-0.5,1.4-0.9h1.6c-0.5,1.5-1.6,2.2-3.1,2.2c-2.1,0-3.3-1.4-3.3-3.4
		c0-2,1.4-3.5,3.3-3.5c2.2,0,3.3,1.9,3.2,3.9L38.2,44z M41.1,42.9c-0.2-0.9-0.6-1.4-1.4-1.4c-0.8-0.1-1.4,0.6-1.5,1.3c0,0,0,0,0,0.1
		H41.1z"/>
	<path class="st0" d="M43.7,40.3h1.7v0.8h0c0.4-0.7,1.2-1,2-1c2,0,3,1.6,3,3.5c0,1.7-1,3.4-2.9,3.4c-0.8,0-1.5-0.3-2-1h0v3.1h-1.8
		V40.3z M48.5,43.6c0-1-0.4-2.1-1.6-2.1c-1.2,0-1.6,1-1.6,2.1c0,1,0.4,2.1,1.6,2.1C48.1,45.6,48.5,44.6,48.5,43.6L48.5,43.6z"/>
	<path class="st0" d="M52.6,44c0.1,1.1,0.6,1.6,1.6,1.6c0.7,0,1.3-0.5,1.4-0.9h1.6c-0.5,1.5-1.6,2.2-3.1,2.2c-2.1,0-3.3-1.4-3.3-3.4
		c0-2,1.4-3.5,3.3-3.5c2.2,0,3.3,1.9,3.2,3.9L52.6,44z M55.5,42.9c-0.2-0.9-0.6-1.4-1.4-1.4c-0.8-0.1-1.4,0.6-1.5,1.3c0,0,0,0,0,0.1
		H55.5z"/>
	<path class="st0" d="M58.1,40.3h1.7v0.9h0c0.4-0.7,1.2-1.1,2-1.1c1.9,0,2.4,1.1,2.4,2.7v4h-1.8v-3.7c0-1.1-0.3-1.6-1.2-1.6
		c-1,0-1.4,0.5-1.4,1.9v3.4h-1.8L58.1,40.3z"/>
	<path class="st0" d="M70,46L70,46c-0.5,0.7-1.2,1-2,1c-2,0-2.9-1.7-2.9-3.5c0-1.8,1-3.4,2.9-3.4c0.8,0,1.5,0.3,2,1l0,0v-3.3h1.8v9
		H70L70,46z M68.4,41.5c-1.2,0-1.6,1-1.6,2.1c0,1,0.5,2.1,1.6,2.1c1.2,0,1.5-1,1.5-2.1C70,42.5,69.6,41.5,68.4,41.5L68.4,41.5z"/>
	<path class="st0" d="M74.3,44c0.1,1.1,0.6,1.6,1.6,1.6c0.7,0,1.3-0.5,1.4-0.9h1.6c-0.5,1.5-1.6,2.2-3.1,2.2c-2.1,0-3.3-1.4-3.3-3.4
		c0-2,1.4-3.5,3.3-3.5c2.2,0,3.3,1.9,3.2,3.9L74.3,44z M77.2,42.9c-0.2-0.9-0.6-1.4-1.4-1.4c-0.8-0.1-1.4,0.6-1.5,1.3c0,0,0,0,0,0.1
		H77.2z"/>
	<path class="st0" d="M79.8,40.3h1.7v0.9h0c0.4-0.7,1.2-1.1,2-1.1c1.9,0,2.4,1.1,2.4,2.7v4h-1.8v-3.7c0-1.1-0.3-1.6-1.1-1.6
		c-1,0-1.4,0.5-1.4,1.9v3.4h-1.8L79.8,40.3z"/>
	<path class="st0" d="M89.3,40.3h1.3v1.2h-1.3v3.2c0,0.6,0.1,0.8,0.8,0.8c0.2,0,0.4,0,0.6-0.1v1.4c-0.3,0.1-0.7,0.1-1,0.1
		c-1.1,0-2.1-0.3-2.1-1.6v-3.9h-1.1v-1.2h1.1v-1.9h1.8V40.3z"/>
	<path class="st0" d="M91.3,37.8h1.8v9h-1.8V37.8z"/>
	<path class="st0" d="M97.5,47.6c-0.4,1-1,1.5-2.2,1.5c-0.4,0-0.7,0-1.1-0.1v-1.5c0.3,0,0.7,0.1,1,0.1c0.6-0.1,0.8-0.7,0.6-1.2
		l-2.3-6.1h1.9l1.5,4.5h0l1.4-4.5h1.8L97.5,47.6z"/>
	<path class="st0" d="M107,40.1c2.1,0,3.4,1.4,3.4,3.5c0,2.1-1.3,3.4-3.4,3.4c-2,0-3.4-1.4-3.4-3.4C103.6,41.5,104.9,40.1,107,40.1z
		 M107,45.6c1.2,0,1.6-1,1.6-2.1c0-1-0.4-2.1-1.6-2.1c-1.2,0-1.6,1-1.6,2.1C105.4,44.6,105.8,45.6,107,45.6L107,45.6z"/>
	<path class="st0" d="M111,40.3h1.7v1.2h0c0.4-0.8,1.2-1.4,2.1-1.4c0.1,0,0.3,0,0.4,0.1v1.7c-0.2,0-0.4-0.1-0.7-0.1
		c-1.3,0-1.8,0.9-1.8,2.1v3H111V40.3z"/>
	<path class="st0" d="M121.9,46.4c0,1.1-0.4,2.9-3.4,2.9c-1.3,0-2.8-0.6-2.9-2.1h1.8c0.2,0.7,0.7,0.9,1.3,0.9c1,0,1.4-0.7,1.4-1.6
		v-0.9h0c-0.4,0.7-1.2,1-2,1c-2,0-2.8-1.5-2.8-3.3c0-1.7,1-3.2,2.8-3.2c0.9,0,1.5,0.3,2,1h0v-0.9h1.7L121.9,46.4L121.9,46.4z
		 M120.2,43.5c0-1-0.4-2-1.5-2c-1,0-1.4,0.9-1.4,1.8c0,0.9,0.3,2,1.4,2C119.7,45.3,120.2,44.4,120.2,43.5L120.2,43.5z"/>
	<path class="st0" d="M122.8,42.3c0.1-1.7,1.6-2.2,3.1-2.2c1.3,0,2.9,0.3,2.9,1.8v3.4c0,0.6,0.1,1.2,0.2,1.4h-1.8
		c-0.1-0.2-0.1-0.4-0.1-0.6c-0.6,0.6-1.4,0.9-2.2,0.8c-1.2,0-2.2-0.6-2.2-2c0-1.5,1.1-1.8,2.2-2c1.1-0.2,2.1-0.1,2.1-0.9
		c0-0.8-0.5-0.9-1.2-0.9c-0.7,0-1.1,0.3-1.2,1L122.8,42.3z M126.9,43.6c-0.3,0.3-0.9,0.3-1.5,0.4c-0.6,0.1-1,0.3-1,1
		c0,0.7,0.5,0.8,1.1,0.8c1.4,0,1.4-1.1,1.4-1.5V43.6z"/>
	<path class="st0" d="M129.9,40.3h1.7v0.9h0c0.4-0.7,1.2-1.1,2-1.1c1.9,0,2.4,1.1,2.4,2.7v4h-1.8v-3.7c0-1.1-0.3-1.6-1.1-1.6
		c-1,0-1.4,0.5-1.4,1.9v3.4h-1.8L129.9,40.3L129.9,40.3z"/>
	<path class="st0" d="M138.7,39.3h-1.8v-1.5h1.8V39.3z M136.9,40.3h1.8v6.5h-1.8V40.3z"/>
	<path class="st0" d="M139.5,45.5l3.4-3.8h-3.1v-1.4h5.5v1.4l-3.4,3.8h3.6v1.4h-6V45.5z"/>
	<path class="st0" d="M147.7,44c0.1,1.1,0.6,1.6,1.6,1.6c0.7,0,1.3-0.5,1.4-0.9h1.6c-0.5,1.5-1.6,2.2-3.1,2.2
		c-2.1,0-3.3-1.4-3.3-3.4c0-2,1.4-3.5,3.3-3.5c2.2,0,3.3,1.9,3.2,3.9L147.7,44z M150.6,42.9c-0.2-0.9-0.6-1.4-1.4-1.4
		c-0.8-0.1-1.4,0.6-1.5,1.3c0,0,0,0,0,0.1H150.6z"/>
	<path class="st0" d="M157.8,46L157.8,46c-0.5,0.7-1.2,1-2,1c-2,0-2.9-1.7-2.9-3.5c0-1.8,1-3.4,2.9-3.4c0.8,0,1.5,0.3,2,1l0,0v-3.3
		h1.8v9h-1.7L157.8,46z M156.2,41.5c-1.2,0-1.6,1-1.6,2.1c0,1,0.5,2.1,1.6,2.1c1.2,0,1.5-1,1.5-2.1
		C157.8,42.5,157.4,41.5,156.2,41.5L156.2,41.5z"/>
	<path class="st0" d="M166.1,39.5h-2.7v-1.7h7.4v1.7H168v7.3h-2V39.5z"/>
	<path class="st0" d="M171.5,37.8h6.8v1.7h-4.8v1.9h4.4v1.5h-4.4v2.2h4.9v1.7h-6.8V37.8z"/>
	<path class="st0" d="M179.2,37.8h3.9c2.3,0,4.1,1.5,4.1,4.5c0,2.6-1.3,4.6-4.1,4.6h-3.9V37.8z M181.2,45.1h1.8
		c1.1,0,2.2-0.7,2.2-2.7c0-1.8-0.6-3-2.6-3h-1.4L181.2,45.1L181.2,45.1z"/>
	<path class="st0" d="M192.8,44c0.1,1.1,0.6,1.6,1.6,1.6c0.7,0,1.3-0.5,1.4-0.9h1.6c-0.5,1.5-1.6,2.2-3.1,2.2
		c-2.1,0-3.3-1.4-3.3-3.4c0-2,1.4-3.5,3.3-3.5c2.2,0,3.3,1.9,3.2,3.9L192.8,44z M195.8,42.9c-0.2-0.9-0.6-1.4-1.4-1.4
		c-0.8-0.1-1.4,0.6-1.5,1.3c0,0,0,0,0,0.1H195.8z"/>
	<path class="st0" d="M201.7,46.8h-2l-2.2-6.5h1.9l1.4,4.5h0l1.4-4.5h1.8L201.7,46.8z"/>
	<path class="st0" d="M205.7,44c0.1,1.1,0.6,1.6,1.6,1.6c0.7,0,1.3-0.5,1.4-0.9h1.6c-0.5,1.5-1.6,2.2-3.1,2.2
		c-2.1,0-3.3-1.4-3.3-3.4c0-2,1.4-3.5,3.3-3.5c2.2,0,3.3,1.9,3.2,3.9L205.7,44z M208.6,42.9c-0.2-0.9-0.6-1.4-1.4-1.4
		c-0.8-0.1-1.4,0.6-1.5,1.3c0,0,0,0,0,0.1H208.6z"/>
	<path class="st0" d="M211.2,40.3h1.7v0.9h0c0.4-0.7,1.2-1.1,2-1.1c1.9,0,2.4,1.1,2.4,2.7v4h-1.8v-3.7c0-1.1-0.3-1.6-1.2-1.6
		c-1,0-1.4,0.5-1.4,1.9v3.4h-1.8L211.2,40.3z"/>
	<path class="st0" d="M220.7,40.3h1.3v1.2h-1.3v3.2c0,0.6,0.1,0.8,0.8,0.8c0.2,0,0.4,0,0.6-0.1v1.4c-0.3,0.1-0.7,0.1-1,0.1
		c-1.1,0-2.1-0.3-2.1-1.6v-3.9h-1.1v-1.2h1.1v-1.9h1.8V40.3z"/>
	<path class="st0" d="M8.4,8H0V0.3h26.1V8h-8.4v22.3H8.4V8z"/>
	<path class="st0" d="M27.5,0.3h25.3V8H36.7v3.7h16.1v7.1H36.7v3.7h16.1v7.7H27.5V0.3z"/>
	<path class="st0" d="M54.4,0.3h15.2c10,0,13.5,7.4,13.5,15c0,9.2-4.9,15.1-15.3,15.1H54.4V0.3z M63.6,22.6h3.6
		c5.8,0,6.6-4.7,6.6-7.5c0-1.9-0.6-7.1-7.3-7.1h-3L63.6,22.6z"/>
	<path class="st0" d="M96.4,18.7L93.6,14l-2.8,4.7H84l6.4-9.4l-6.2-9H91l2.5,4.5l2.6-4.5h6.8l-6.2,9l6.4,9.4L96.4,18.7z"/>
	<path class="st0" d="M115.9,0.7v17.4c0,2,0.4,3.7,1.2,5.1c1.1,2,3.1,3.1,5.8,3.1c3.3,0,5.4-1.1,6.6-3.3c0.6-1.2,0.9-2.8,0.9-4.8
		V0.7h3.8v15.8c0,3.5-0.5,6.1-1.4,8c-1.7,3.4-4.9,5.1-9.7,5.1c-4.8,0-8-1.7-9.7-5.1c-0.9-1.9-1.4-4.5-1.4-8V0.7H115.9z"/>
	<path class="st0" d="M142.5,19.7c0.1,1.6,0.5,2.9,1.1,3.9c1.2,1.9,3.3,2.8,6.4,2.8c1.3,0,2.6-0.2,3.7-0.6c2.2-0.8,3.3-2.2,3.3-4.3
		c0-1.5-0.5-2.6-1.4-3.3c-0.9-0.6-2.4-1.2-4.4-1.7l-3.7-0.9c-2.4-0.6-4.1-1.2-5.1-1.8c-1.7-1.2-2.6-2.9-2.6-5.2
		c0-2.5,0.9-4.6,2.6-6.2c1.7-1.6,4.1-2.4,7.2-2.4c2.9,0,5.3,0.7,7.3,2.1c2,1.4,3,3.7,3,6.8h-3.6c-0.2-1.5-0.6-2.7-1.2-3.5
		c-1.1-1.5-3-2.2-5.7-2.2c-2.2,0-3.7,0.5-4.6,1.4c-0.9,0.9-1.4,2-1.4,3.3c0,1.4,0.6,2.4,1.7,3c0.7,0.4,2.4,0.9,4.9,1.5l3.8,0.9
		c1.8,0.4,3.3,1,4.3,1.8c1.7,1.3,2.6,3.2,2.6,5.7c0,3.1-1.1,5.3-3.3,6.7c-2.2,1.3-4.8,2-7.7,2c-3.4,0-6.1-0.9-8-2.7
		c-1.9-1.8-2.9-4.2-2.8-7.2H142.5z"/>
	<path class="st0" d="M186.6,0.7v3.3h-9.5v24.7h-3.8V4.1h-9.5V0.7H186.6z"/>
</g>
</svg>
