<svg id="Capa_1" data-name="Capa 1" xmlns="http://www.w3.org/2000/svg" width="1100.433" height="198.447" viewBox="0 0 1100.433 198.447"><defs><style>.cls-1{fill:#c33c35;}.cls-2{fill:#040006;}</style></defs><title>TEDX_losangeles</title><path class="cls-1" d="M10.6,177.617,3.038,166.711h7.211l4.05,6.009,4.006-6.009h6.988l-7.567,10.771,8.5,12.24h-7.21l-4.807-7.255L9.4,189.723H2.326Z"/><path class="cls-2" d="M56.18,176.1H33.7V171.34H56.18Zm0,9.525H33.7v-4.763H56.18Z"/><path class="cls-2" d="M73.4,163.151h-6.32v-5.208H73.4Zm-6.32,3.561H73.4v23.012h-6.32Z"/><path class="cls-2" d="M77.5,166.711h6.009v3.2h.133a8.208,8.208,0,0,1,7.033-3.828c6.721,0,8.412,3.783,8.412,9.48v14.154h-6.32v-13c0-3.783-1.113-5.652-4.05-5.652-3.427,0-4.9,1.914-4.9,6.587v12.062H77.5Z"/><path class="cls-2" d="M119.424,186.786h-.089c-1.469,2.492-4.05,3.56-6.988,3.56-6.943,0-10.326-5.964-10.326-12.329,0-6.187,3.427-11.929,10.193-11.929a8.05,8.05,0,0,1,6.854,3.427h.045V157.943h6.32v31.78h-6.009ZM113.9,170.851c-4.14,0-5.564,3.56-5.564,7.344,0,3.6,1.647,7.388,5.564,7.388,4.184,0,5.43-3.649,5.43-7.433C119.335,174.412,118,170.851,113.9,170.851Z"/><path class="cls-2" d="M134.511,179.753c.178,4.006,2.136,5.831,5.653,5.831,2.537,0,4.584-1.558,4.985-2.982h5.564c-1.781,5.43-5.564,7.745-10.771,7.745-7.255,0-11.75-4.985-11.75-12.106,0-6.9,4.762-12.151,11.75-12.151,7.833,0,11.617,6.587,11.172,13.664Zm10.282-4.006c-.579-3.2-1.958-4.9-5.03-4.9a4.98,4.98,0,0,0-5.252,4.9Z"/><path class="cls-2" d="M153.959,166.711h6.009v2.938h.089a7.656,7.656,0,0,1,6.854-3.561c7.21,0,10.46,5.831,10.46,12.373,0,6.143-3.383,11.884-10.1,11.884a8.167,8.167,0,0,1-6.9-3.472h-.089v10.949h-6.321Zm17.092,11.573c0-3.65-1.469-7.433-5.519-7.433-4.139,0-5.475,3.694-5.475,7.433s1.424,7.3,5.519,7.3C169.716,185.583,171.051,182.023,171.051,178.284Z"/><path class="cls-2" d="M185.471,179.753c.178,4.006,2.136,5.831,5.653,5.831,2.537,0,4.584-1.558,4.985-2.982h5.564c-1.781,5.43-5.564,7.745-10.772,7.745-7.255,0-11.75-4.985-11.75-12.106,0-6.9,4.762-12.151,11.75-12.151,7.834,0,11.617,6.587,11.172,13.664Zm10.282-4.006c-.579-3.2-1.959-4.9-5.03-4.9a4.98,4.98,0,0,0-5.252,4.9Z"/><path class="cls-2" d="M204.919,166.711h6.009v3.2h.133a8.208,8.208,0,0,1,7.033-3.828c6.721,0,8.412,3.783,8.412,9.48v14.154h-6.32v-13c0-3.783-1.113-5.652-4.05-5.652-3.427,0-4.9,1.914-4.9,6.587v12.062h-6.321Z"/><path class="cls-2" d="M246.846,186.786h-.089c-1.469,2.492-4.05,3.56-6.988,3.56-6.943,0-10.326-5.964-10.326-12.329,0-6.187,3.427-11.929,10.193-11.929a8.05,8.05,0,0,1,6.854,3.427h.044V157.943h6.32v31.78h-6.009Zm-5.519-15.935c-4.14,0-5.564,3.56-5.564,7.344,0,3.6,1.647,7.388,5.564,7.388,4.184,0,5.43-3.649,5.43-7.433C246.757,174.412,245.421,170.851,241.327,170.851Z"/><path class="cls-2" d="M261.933,179.753c.178,4.006,2.136,5.831,5.653,5.831,2.537,0,4.584-1.558,4.985-2.982h5.564c-1.781,5.43-5.564,7.745-10.771,7.745-7.255,0-11.75-4.985-11.75-12.106,0-6.9,4.762-12.151,11.75-12.151,7.833,0,11.617,6.587,11.172,13.664Zm10.282-4.006c-.579-3.2-1.959-4.9-5.03-4.9a4.98,4.98,0,0,0-5.252,4.9Z"/><path class="cls-2" d="M281.381,166.711h6.009v3.2h.133a8.208,8.208,0,0,1,7.033-3.828c6.721,0,8.412,3.783,8.412,9.48v14.154h-6.32v-13c0-3.783-1.113-5.652-4.05-5.652-3.427,0-4.9,1.914-4.9,6.587v12.062h-6.321Z"/><path class="cls-2" d="M314.9,166.711h4.629v4.228H314.9v11.395c0,2.137.534,2.67,2.67,2.67a9.738,9.738,0,0,0,1.958-.178v4.94a24.223,24.223,0,0,1-3.694.223c-3.872,0-7.255-.89-7.255-5.475V170.94h-3.828v-4.228h3.828v-6.9H314.9Z"/><path class="cls-2" d="M321.837,157.943h6.32v31.78h-6.32Z"/><path class="cls-2" d="M343.6,192.616c-1.38,3.695-3.56,5.208-7.923,5.208a37.561,37.561,0,0,1-3.872-.223v-5.207a33.528,33.528,0,0,0,3.694.223c2.181-.223,2.893-2.493,2.181-4.317l-8.1-21.587h6.766l5.207,15.757h.089l5.03-15.757h6.543Z"/><path class="cls-2" d="M377.116,166.088c7.255,0,11.929,4.807,11.929,12.151,0,7.3-4.674,12.106-11.929,12.106-7.211,0-11.884-4.807-11.884-12.106C365.232,170.9,369.905,166.088,377.116,166.088Zm0,19.5c4.317,0,5.608-3.694,5.608-7.344,0-3.694-1.29-7.389-5.608-7.389-4.273,0-5.564,3.694-5.564,7.389C371.552,181.889,372.843,185.583,377.116,185.583Z"/><path class="cls-2" d="M391.357,166.711h6.009v4.273h.089a8.137,8.137,0,0,1,7.344-4.9,4.7,4.7,0,0,1,1.379.223v5.875a11.554,11.554,0,0,0-2.27-.222c-4.629,0-6.231,3.338-6.231,7.389v10.371h-6.321Z"/><path class="cls-2" d="M429.9,188.254c0,3.783-1.335,10.192-11.929,10.192-4.54,0-9.836-2.136-10.148-7.388H414.1c.579,2.359,2.492,3.161,4.718,3.161,3.517,0,5.119-2.4,5.074-5.7v-3.027H423.8a7.775,7.775,0,0,1-6.9,3.561c-6.9,0-9.837-5.253-9.837-11.573,0-5.964,3.427-11.394,9.881-11.394,3.026,0,5.341,1.024,6.854,3.694h.089v-3.071H429.9Zm-6.009-10.326c0-3.739-1.291-7.077-5.386-7.077-3.561,0-5.119,3.116-5.119,6.543,0,3.293,1.246,6.9,5.119,6.9C422.112,184.293,423.892,181.222,423.892,177.928Z"/><path class="cls-2" d="M432.926,173.789c.356-5.92,5.652-7.7,10.815-7.7,4.585,0,10.1,1.024,10.1,6.543V184.6c0,2.092.223,4.184.8,5.119h-6.41a9.39,9.39,0,0,1-.445-2.226,10.553,10.553,0,0,1-7.745,2.849c-4.362,0-7.834-2.181-7.834-6.9,0-5.207,3.917-6.454,7.834-6.988,3.873-.579,7.478-.445,7.478-3.026,0-2.715-1.87-3.116-4.1-3.116-2.4,0-3.961.979-4.184,3.472Zm14.6,4.673c-1.068.935-3.294.979-5.252,1.335-1.958.4-3.739,1.068-3.739,3.383,0,2.359,1.825,2.938,3.873,2.938,4.94,0,5.119-3.917,5.119-5.3Z"/><path class="cls-2" d="M457.85,166.711h6.009v3.2h.133a8.208,8.208,0,0,1,7.033-3.828c6.721,0,8.412,3.783,8.412,9.48v14.154h-6.32v-13c0-3.783-1.113-5.652-4.05-5.652-3.427,0-4.9,1.914-4.9,6.587v12.062H457.85Z"/><path class="cls-2" d="M488.96,163.151h-6.32v-5.208h6.32Zm-6.32,3.561h6.32v23.012h-6.32Z"/><path class="cls-2" d="M491.63,184.96,503.6,171.474H492.52v-4.763h19.406v4.763L499.954,184.96h12.818v4.763H491.63Z"/><path class="cls-2" d="M520.471,179.753c.178,4.006,2.137,5.831,5.652,5.831,2.537,0,4.585-1.558,4.985-2.982h5.564c-1.78,5.43-5.564,7.745-10.772,7.745-7.255,0-11.75-4.985-11.75-12.106,0-6.9,4.763-12.151,11.75-12.151,7.834,0,11.617,6.587,11.173,13.664Zm10.281-4.006c-.578-3.2-1.958-4.9-5.029-4.9a4.98,4.98,0,0,0-5.252,4.9Z"/><path class="cls-2" d="M556.345,186.786h-.09c-1.469,2.492-4.05,3.56-6.987,3.56-6.944,0-10.327-5.964-10.327-12.329,0-6.187,3.428-11.929,10.193-11.929a8.05,8.05,0,0,1,6.854,3.427h.044V157.943h6.321v31.78h-6.009Zm-5.52-15.935c-4.14,0-5.563,3.56-5.563,7.344,0,3.6,1.647,7.388,5.563,7.388,4.184,0,5.43-3.649,5.43-7.433C556.255,174.412,554.92,170.851,550.826,170.851Z"/><path class="cls-2" d="M585.407,163.818h-9.524v-5.875H601.92v5.875h-9.525v25.9h-6.988Z"/><path class="cls-2" d="M604.677,157.943h23.769v5.875h-16.78v6.81h15.4v5.43h-15.4v7.789H628.8v5.875H604.677Z"/><path class="cls-2" d="M631.738,157.943h13.709c8.234,0,14.421,5.164,14.421,15.712,0,9.213-4.718,16.068-14.421,16.068H631.738Zm6.988,25.9h6.231c4.05,0,7.923-2.492,7.923-9.525,0-6.41-2.226-10.5-9.17-10.5h-4.984Z"/><path class="cls-2" d="M679.85,179.753c.178,4.006,2.137,5.831,5.652,5.831,2.537,0,4.585-1.558,4.985-2.982h5.563c-1.78,5.43-5.563,7.745-10.771,7.745-7.255,0-11.75-4.985-11.75-12.106,0-6.9,4.763-12.151,11.75-12.151,7.834,0,11.617,6.587,11.173,13.664Zm10.281-4.006c-.578-3.2-1.958-4.9-5.029-4.9a4.98,4.98,0,0,0-5.252,4.9Z"/><path class="cls-2" d="M711.139,189.723h-7.033l-7.878-23.012h6.632l4.852,15.712h.089l4.851-15.712h6.276Z"/><path class="cls-2" d="M724.98,179.753c.178,4.006,2.137,5.831,5.652,5.831,2.537,0,4.585-1.558,4.985-2.982h5.563c-1.78,5.43-5.563,7.745-10.771,7.745-7.255,0-11.75-4.985-11.75-12.106,0-6.9,4.763-12.151,11.75-12.151,7.834,0,11.617,6.587,11.172,13.664Zm10.281-4.006c-.578-3.2-1.958-4.9-5.029-4.9a4.98,4.98,0,0,0-5.252,4.9Z"/><path class="cls-2" d="M744.429,166.711h6.009v3.2h.134a8.208,8.208,0,0,1,7.032-3.828c6.722,0,8.413,3.783,8.413,9.48v14.154H759.7v-13c0-3.783-1.113-5.652-4.051-5.652-3.428,0-4.9,1.914-4.9,6.587v12.062h-6.32Z"/><path class="cls-2" d="M777.943,166.711h4.629v4.228h-4.629v11.395c0,2.137.534,2.67,2.671,2.67a9.723,9.723,0,0,0,1.958-.178v4.94a24.2,24.2,0,0,1-3.694.223c-3.872,0-7.255-.89-7.255-5.475V170.94h-3.828v-4.228h3.828v-6.9h6.32Z"/><path class="cls-1" d="M29.655,52.8H0V25.68H91.879V52.8H62.236v78.7H29.655Z"/><path class="cls-1" d="M96.943,25.68h89.192V52.8h-56.59V65.987h56.59v25.2h-56.59v13.187h56.6V131.5H96.943Z"/><path class="cls-1" d="M191.622,25.68h53.5c35.266,0,47.729,26.085,47.729,52.753,0,32.466-17.191,53.063-54.1,53.063H191.622Zm32.6,78.7h12.75c20.309,0,23.278-16.456,23.278-26.4,0-6.656-2.086-25.179-25.652-25.179H224.222Z"/><path class="cls-1" d="M339.7,90.72l-9.945-16.492-9.7,16.492H296.167l22.677-33.346-21.835-31.9H320.9l8.849,15.767,9.1-15.767h23.888l-21.829,31.9L363.591,90.72Z"/><path class="cls-2" d="M393.992,27.29H407.4v87.193h49.661v11.792h-63.07Z"/><path class="cls-2" d="M521.413,61.311q9.568,9.29,9.568,27.332,0,17.437-8.431,28.815t-26.162,11.377q-14.788,0-23.486-10.064t-8.7-27.03q0-18.179,9.166-28.949t24.624-10.772A32.343,32.343,0,0,1,521.413,61.311Zm-7.531,47.962a45.807,45.807,0,0,0,4.432-20.292q0-10.094-3.2-16.422Q510.051,62.6,497.658,62.6q-11,0-15.991,8.481t-5,20.459q0,11.509,5,19.181t15.858,7.672Q509.451,118.391,513.881,109.273Z"/><path class="cls-2" d="M553.082,103.634q.549,6.064,3.095,9.3,4.676,5.862,16.23,5.862a24.328,24.328,0,0,0,12.1-2.931,9.7,9.7,0,0,0,5.228-9.063,7.73,7.73,0,0,0-4.178-7.075q-2.672-1.481-10.546-3.437l-9.792-2.426q-9.381-2.29-13.833-5.121-7.944-4.917-7.944-13.611a20.681,20.681,0,0,1,7.478-16.576q7.477-6.333,20.11-6.334,16.526,0,23.831,9.568a20.593,20.593,0,0,1,4.441,13.072H587.852a13.738,13.738,0,0,0-2.966-7.438q-4.277-4.756-14.831-4.758-7.036,0-10.656,2.619a8.139,8.139,0,0,0-3.621,6.915q0,4.7,4.759,7.521a28.894,28.894,0,0,0,8.1,2.958l8.17,1.954q13.318,3.168,17.851,6.132,7.075,4.649,7.075,14.622a22.156,22.156,0,0,1-7.4,16.644q-7.4,7.008-22.547,7.008-16.305,0-23.093-7.311a27.465,27.465,0,0,1-7.266-18.093Z"/><path class="cls-2" d="M645.375,27.29h15.138l35.926,98.985H681.749L671.416,96.626H632.582l-10.734,29.648H608.1Zm22.235,58.42-15.24-43.731L636.535,85.71ZM666.69,0,648.7,19.474h-9.3L651.731,0Z"/><path class="cls-2" d="M706.917,54.108H718.44V64.35a32.332,32.332,0,0,1,10.849-9.1,28.938,28.938,0,0,1,12.735-2.763q15.363,0,20.754,10.714,2.965,5.862,2.965,16.778v46.292H753.412V80.792a24.632,24.632,0,0,0-1.954-10.646q-3.234-6.737-11.725-6.738a23.906,23.906,0,0,0-7.075.876,18.223,18.223,0,0,0-8.76,5.93,17.847,17.847,0,0,0-3.941,7.379,49.594,49.594,0,0,0-.91,10.882v37.8H706.917Z"/><path class="cls-2" d="M823.787,57.005a33.307,33.307,0,0,1,6.98,6.873v-9.1h11.186v65.631q0,13.746-4.029,21.7Q830.4,156.8,809.516,156.8q-11.619,0-19.543-5.222t-8.867-16.341h12.331a13.738,13.738,0,0,0,3.485,7.479q4.087,4.043,12.866,4.043,13.874,0,18.161-9.838,2.547-5.795,2.346-20.687a23.724,23.724,0,0,1-8.725,8.221q-5.1,2.7-13.492,2.7a28.739,28.739,0,0,1-20.437-8.321q-8.758-8.322-8.759-27.526,0-18.125,8.826-28.3t21.311-10.175A26.137,26.137,0,0,1,823.787,57.005Zm1.483,13a17.576,17.576,0,0,0-14.012-6.469q-12.738,0-17.43,11.994-2.481,6.4-2.48,16.778,0,12.2,4.928,18.564a15.875,15.875,0,0,0,13.24,6.367q13,0,18.3-11.792a38.2,38.2,0,0,0,2.95-15.565Q830.767,76.48,825.27,70.01Z"/><path class="cls-2" d="M904.992,56.1a27.357,27.357,0,0,1,10.916,9.332,32.313,32.313,0,0,1,4.821,12.735q1.071,4.988,1.072,15.9H869.31q.335,11.014,5.148,17.67t14.908,6.655q9.428,0,15.044-6.295a21.46,21.46,0,0,0,4.453-8.462H920.79a25.132,25.132,0,0,1-3.133,8.861,31.884,31.884,0,0,1-5.938,7.984,27.983,27.983,0,0,1-13.575,7.277,40.959,40.959,0,0,1-9.831,1.078,30.113,30.113,0,0,1-22.7-9.8q-9.309-9.8-9.308-27.459,0-17.385,9.376-28.233t24.51-10.849A32.56,32.56,0,0,1,904.992,56.1Zm4.344,28.334q-.735-7.884-3.408-12.6-4.945-8.758-16.5-8.76a18.224,18.224,0,0,0-13.9,6.031q-5.612,6.031-5.946,15.329Z"/><path class="cls-2" d="M937.5,27.29H949.63v98.985H937.5Z"/><path class="cls-2" d="M1012.4,56.1a27.357,27.357,0,0,1,10.916,9.332,32.313,32.313,0,0,1,4.821,12.735q1.071,4.988,1.072,15.9H976.718q.335,11.014,5.148,17.67t14.908,6.655q9.428,0,15.044-6.295a21.46,21.46,0,0,0,4.453-8.462H1028.2a25.132,25.132,0,0,1-3.133,8.861,31.884,31.884,0,0,1-5.938,7.984,27.983,27.983,0,0,1-13.575,7.277,40.959,40.959,0,0,1-9.831,1.078,30.113,30.113,0,0,1-22.7-9.8q-9.309-9.8-9.308-27.459,0-17.385,9.376-28.233T997.6,52.491A32.56,32.56,0,0,1,1012.4,56.1Zm4.344,28.334q-.735-7.884-3.408-12.6-4.945-8.758-16.5-8.76a18.224,18.224,0,0,0-13.9,6.031q-5.612,6.031-5.946,15.329Z"/><path class="cls-2" d="M1051.783,103.634q.549,6.064,3.095,9.3,4.676,5.862,16.23,5.862a24.328,24.328,0,0,0,12.1-2.931,9.7,9.7,0,0,0,5.228-9.063,7.73,7.73,0,0,0-4.178-7.075q-2.672-1.481-10.546-3.437l-9.792-2.426q-9.381-2.29-13.833-5.121-7.944-4.917-7.943-13.611a20.681,20.681,0,0,1,7.478-16.576q7.477-6.333,20.11-6.334,16.526,0,23.831,9.568a20.593,20.593,0,0,1,4.441,13.072h-11.455a13.738,13.738,0,0,0-2.966-7.438q-4.277-4.756-14.831-4.758-7.036,0-10.656,2.619a8.139,8.139,0,0,0-3.621,6.915q0,4.7,4.759,7.521a28.894,28.894,0,0,0,8.1,2.958l8.17,1.954q13.318,3.168,17.851,6.132,7.075,4.649,7.075,14.622a22.156,22.156,0,0,1-7.4,16.644q-7.4,7.008-22.547,7.008-16.305,0-23.093-7.311a27.465,27.465,0,0,1-7.266-18.093Z"/></svg>