<?xml version="1.0" encoding="utf-8"?>
<!-- Generator: Adobe Illustrator 21.0.0, SVG Export Plug-In . SVG Version: 6.00 Build 0)  -->
<svg version="1.1" id="Capa_1" xmlns="http://www.w3.org/2000/svg" xmlns:xlink="http://www.w3.org/1999/xlink" x="0px" y="0px"
	 width="222px" height="40px" viewBox="0 0 222 40" style="enable-background:new 0 0 222 40;" xml:space="preserve">
<style type="text/css">
	.st0{fill:#FFFFFF;}
</style>
<title>TEDX_losangelesfooter</title>
<g>
	<path class="st0" d="M2.1,35.8l-1.5-2.2h1.5l0.8,1.2l0.8-1.2h1.4l-1.5,2.2l1.7,2.5H3.8l-1-1.5l-1,1.5H0.5L2.1,35.8z"/>
	<path class="st0" d="M11.3,35.5H6.8v-1h4.5V35.5z M11.3,37.4H6.8v-1h4.5V37.4z"/>
	<path class="st0" d="M14.8,32.9h-1.3v-1.1h1.3V32.9z M13.5,33.6h1.3v4.6h-1.3V33.6z"/>
	<path class="st0" d="M15.6,33.6h1.2v0.6h0c0.3-0.5,0.8-0.8,1.4-0.8c1.4,0,1.7,0.8,1.7,1.9v2.9h-1.3v-2.6c0-0.8-0.2-1.1-0.8-1.1
		c-0.7,0-1,0.4-1,1.3v2.4h-1.3V33.6z"/>
	<path class="st0" d="M24.1,37.7L24.1,37.7c-0.3,0.5-0.8,0.7-1.4,0.7c-1.4,0-2.1-1.2-2.1-2.5c0-1.2,0.7-2.4,2.1-2.4
		c0.5,0,1.1,0.2,1.4,0.7h0v-2.3h1.3v6.4h-1.2V37.7z M23,34.5c-0.8,0-1.1,0.7-1.1,1.5c0,0.7,0.3,1.5,1.1,1.5c0.8,0,1.1-0.7,1.1-1.5
		C24.1,35.2,23.8,34.5,23,34.5z"/>
	<path class="st0" d="M27.1,36.3c0,0.8,0.4,1.2,1.1,1.2c0.5,0,0.9-0.3,1-0.6h1.1c-0.4,1.1-1.1,1.6-2.2,1.6c-1.5,0-2.4-1-2.4-2.4
		c0-1.4,1-2.5,2.4-2.5c1.6,0,2.3,1.3,2.3,2.8L27.1,36.3z M29.2,35.5c-0.1-0.6-0.4-1-1-1c-0.6,0-1,0.4-1.1,0.9c0,0,0,0,0,0H29.2z"/>
	<path class="st0" d="M31.1,33.6h1.2v0.6h0c0.3-0.5,0.8-0.7,1.4-0.7c1.5,0,2.1,1.2,2.1,2.5c0,1.2-0.7,2.4-2,2.4
		c-0.6,0-1.1-0.2-1.4-0.7h0v2.2h-1.3L31.1,33.6z M34.5,36c0-0.7-0.3-1.5-1.1-1.5c-0.8,0-1.1,0.7-1.1,1.5s0.3,1.5,1.1,1.5
		C34.2,37.4,34.5,36.7,34.5,36z"/>
	<path class="st0" d="M37.4,36.3c0,0.8,0.4,1.2,1.1,1.2c0.5,0,0.9-0.3,1-0.6h1.1c-0.4,1.1-1.1,1.6-2.2,1.6c-1.5,0-2.4-1-2.4-2.4
		c0-1.4,1-2.5,2.4-2.5c1.6,0,2.3,1.3,2.3,2.8L37.4,36.3z M39.5,35.5c-0.1-0.6-0.4-1-1-1c-0.6,0-1,0.4-1.1,0.9c0,0,0,0,0,0H39.5z"/>
	<path class="st0" d="M41.3,33.6h1.2v0.6h0c0.3-0.5,0.8-0.8,1.4-0.8c1.4,0,1.7,0.8,1.7,1.9v2.9h-1.3v-2.6c0-0.8-0.2-1.1-0.8-1.1
		c-0.7,0-1,0.4-1,1.3v2.4h-1.3L41.3,33.6z"/>
	<path class="st0" d="M49.8,37.7L49.8,37.7c-0.3,0.5-0.8,0.7-1.4,0.7c-1.4,0-2.1-1.2-2.1-2.5c0-1.2,0.7-2.4,2.1-2.4
		c0.5,0,1.1,0.2,1.4,0.7h0v-2.3H51v6.4h-1.2L49.8,37.7z M48.7,34.5c-0.8,0-1.1,0.7-1.1,1.5c0,0.7,0.3,1.5,1.1,1.5
		c0.8,0,1.1-0.7,1.1-1.5C49.8,35.2,49.5,34.5,48.7,34.5z"/>
	<path class="st0" d="M52.8,36.3c0,0.8,0.4,1.2,1.1,1.2c0.5,0,0.9-0.3,1-0.6h1.1c-0.4,1.1-1.1,1.6-2.2,1.6c-1.5,0-2.4-1-2.4-2.4
		c0-1.4,1-2.5,2.4-2.5c1.6,0,2.3,1.3,2.3,2.8L52.8,36.3z M54.9,35.5c-0.1-0.6-0.4-1-1-1c-0.6,0-1,0.4-1.1,0.9c0,0,0,0,0,0H54.9z"/>
	<path class="st0" d="M56.8,33.6H58v0.6h0c0.3-0.5,0.8-0.8,1.4-0.8c1.4,0,1.7,0.8,1.7,1.9v2.9h-1.3v-2.6c0-0.8-0.2-1.1-0.8-1.1
		c-0.7,0-1,0.4-1,1.3v2.4h-1.3L56.8,33.6z"/>
	<path class="st0" d="M63.5,33.6h0.9v0.9h-0.9v2.3c0,0.4,0.1,0.5,0.5,0.5c0.1,0,0.3,0,0.4,0v1c-0.2,0-0.5,0-0.7,0
		c-0.8,0-1.5-0.2-1.5-1.1v-2.7h-0.8v-0.9h0.8v-1.4h1.3V33.6z"/>
	<path class="st0" d="M64.9,31.9h1.3v6.4h-1.3V31.9z"/>
	<path class="st0" d="M69.3,38.9c-0.3,0.7-0.7,1.1-1.6,1.1c-0.3,0-0.5,0-0.8,0v-1.1c0.2,0,0.5,0,0.7,0c0.4,0,0.6-0.5,0.4-0.9
		l-1.6-4.4h1.4l1.1,3.2h0l1-3.2h1.3L69.3,38.9z"/>
	<path class="st0" d="M76.1,33.5c1.5,0,2.4,1,2.4,2.5c0,1.5-0.9,2.4-2.4,2.4c-1.5,0-2.4-1-2.4-2.4C73.7,34.5,74.6,33.5,76.1,33.5z
		 M76.1,37.4c0.9,0,1.1-0.7,1.1-1.5c0-0.7-0.3-1.5-1.1-1.5c-0.9,0-1.1,0.7-1.1,1.5C75,36.7,75.2,37.4,76.1,37.4L76.1,37.4z"/>
	<path class="st0" d="M79,33.6h1.2v0.9h0c0.3-0.6,0.8-1,1.5-1c0.1,0,0.2,0,0.3,0v1.2c-0.2,0-0.3,0-0.5,0c-0.9,0-1.3,0.7-1.3,1.5v2.1
		H79L79,33.6z"/>
	<path class="st0" d="M86.7,38c0,0.8-0.3,2.1-2.4,2.1c-0.9,0-2-0.4-2-1.5h1.3c0.1,0.5,0.5,0.6,1,0.6c0.7,0,1-0.5,1-1.1v-0.6h0
		c-0.3,0.5-0.8,0.7-1.4,0.7c-1.4,0-2-1.1-2-2.3c0-1.2,0.7-2.3,2-2.3c0.6,0,1.1,0.2,1.4,0.7h0v-0.6h1.2V38z M85.5,35.9
		c0-0.8-0.3-1.4-1.1-1.4c-0.7,0-1,0.6-1,1.3c0,0.7,0.3,1.4,1,1.4C85.2,37.2,85.5,36.6,85.5,35.9L85.5,35.9z"/>
	<path class="st0" d="M87.3,35.1c0.1-1.2,1.1-1.6,2.2-1.6c0.9,0,2,0.2,2,1.3v2.4c0,0.4,0,0.8,0.2,1h-1.3c0-0.1-0.1-0.3-0.1-0.4
		c-0.4,0.4-1,0.6-1.6,0.6c-0.9,0-1.6-0.4-1.6-1.4c0-1.1,0.8-1.3,1.6-1.4c0.8-0.1,1.5-0.1,1.5-0.6c0-0.5-0.4-0.6-0.8-0.6
		c-0.5,0-0.8,0.2-0.8,0.7L87.3,35.1z M90.3,36c-0.2,0.2-0.7,0.2-1.1,0.3c-0.4,0.1-0.8,0.2-0.8,0.7c0,0.5,0.4,0.6,0.8,0.6
		c1,0,1-0.8,1-1.1L90.3,36z"/>
	<path class="st0" d="M92.4,33.6h1.2v0.6h0c0.3-0.5,0.8-0.8,1.4-0.8c1.4,0,1.7,0.8,1.7,1.9v2.9h-1.3v-2.6c0-0.8-0.2-1.1-0.8-1.1
		c-0.7,0-1,0.4-1,1.3v2.4h-1.3V33.6z"/>
	<path class="st0" d="M98.6,32.9h-1.3v-1.1h1.3V32.9z M97.4,33.6h1.3v4.6h-1.3V33.6z"/>
	<path class="st0" d="M99.2,37.3l2.4-2.7h-2.2v-1h3.9v1l-2.4,2.7h2.6v1h-4.3V37.3z"/>
	<path class="st0" d="M105,36.3c0,0.8,0.4,1.2,1.1,1.2c0.5,0,0.9-0.3,1-0.6h1.1c-0.4,1.1-1.1,1.6-2.2,1.6c-1.5,0-2.4-1-2.4-2.4
		c0-1.4,1-2.5,2.4-2.5c1.6,0,2.3,1.3,2.3,2.8L105,36.3z M107.1,35.5c-0.1-0.6-0.4-1-1-1c-0.6,0-1,0.4-1.1,0.9c0,0,0,0,0,0H107.1z"/>
	<path class="st0" d="M112.2,37.7L112.2,37.7c-0.3,0.5-0.8,0.7-1.4,0.7c-1.4,0-2.1-1.2-2.1-2.5c0-1.2,0.7-2.4,2.1-2.4
		c0.5,0,1.1,0.2,1.4,0.7h0v-2.3h1.3v6.4h-1.2L112.2,37.7z M111.1,34.5c-0.8,0-1.1,0.7-1.1,1.5c0,0.7,0.3,1.5,1.1,1.5
		c0.8,0,1.1-0.7,1.1-1.5C112.2,35.2,111.9,34.5,111.1,34.5L111.1,34.5z"/>
	<path class="st0" d="M118.1,33h-1.9v-1.2h5.3V33h-1.9v5.2h-1.4V33z"/>
	<path class="st0" d="M122,31.9h4.8V33h-3.4v1.4h3.1v1.1h-3.1v1.6h3.5v1.2H122V31.9z"/>
	<path class="st0" d="M127.4,31.9h2.8c1.7,0,2.9,1,2.9,3.2c0,1.9-1,3.2-2.9,3.2h-2.8V31.9z M128.9,37.1h1.3c0.8,0,1.6-0.5,1.6-1.9
		c0-1.3-0.4-2.1-1.8-2.1h-1V37.1z"/>
	<path class="st0" d="M137.2,36.3c0,0.8,0.4,1.2,1.1,1.2c0.5,0,0.9-0.3,1-0.6h1.1c-0.4,1.1-1.1,1.6-2.2,1.6c-1.5,0-2.4-1-2.4-2.4
		c0-1.4,1-2.5,2.4-2.5c1.6,0,2.3,1.3,2.3,2.8L137.2,36.3z M139.2,35.5c-0.1-0.6-0.4-1-1-1c-0.6,0-1,0.4-1.1,0.9c0,0,0,0,0,0H139.2z"
		/>
	<path class="st0" d="M143.5,38.3H142l-1.6-4.6h1.3l1,3.2h0l1-3.2h1.3L143.5,38.3z"/>
	<path class="st0" d="M146.3,36.3c0,0.8,0.4,1.2,1.1,1.2c0.5,0,0.9-0.3,1-0.6h1.1c-0.4,1.1-1.1,1.6-2.2,1.6c-1.5,0-2.4-1-2.4-2.4
		c0-1.4,1-2.5,2.4-2.5c1.6,0,2.3,1.3,2.3,2.8L146.3,36.3z M148.3,35.5c-0.1-0.6-0.4-1-1-1c-0.6,0-1,0.4-1.1,0.9c0,0,0,0,0,0H148.3z"
		/>
	<path class="st0" d="M150.2,33.6h1.2v0.6h0c0.3-0.5,0.8-0.8,1.4-0.8c1.4,0,1.7,0.8,1.7,1.9v2.9h-1.3v-2.6c0-0.8-0.2-1.1-0.8-1.1
		c-0.7,0-1,0.4-1,1.3v2.4h-1.3L150.2,33.6z"/>
	<path class="st0" d="M156.9,33.6h0.9v0.9h-0.9v2.3c0,0.4,0.1,0.5,0.5,0.5c0.1,0,0.3,0,0.4,0v1c-0.2,0-0.5,0-0.7,0
		c-0.8,0-1.5-0.2-1.5-1.1v-2.7h-0.8v-0.9h0.8v-1.4h1.3L156.9,33.6z"/>
	<path class="st0" d="M6,10.7H0V5.2h18.5v5.5h-6v15.9H6V10.7z"/>
	<path class="st0" d="M19.6,5.2h18v5.5H26.1v2.7h11.4v5.1H26.1v2.7h11.4v5.5h-18V5.2z"/>
	<path class="st0" d="M38.7,5.2h10.8c7.1,0,9.6,5.3,9.6,10.6c0,6.5-3.5,10.7-10.9,10.7h-9.5V5.2z M45.2,21.1h2.6
		c4.1,0,4.7-3.3,4.7-5.3c0-1.3-0.4-5.1-5.2-5.1h-2.1L45.2,21.1z"/>
	<path class="st0" d="M68.5,18.3l-2-3.3l-2,3.3h-4.8l4.6-6.7l-4.4-6.4h4.8l1.8,3.2l1.8-3.2h4.8l-4.4,6.4l4.6,6.7H68.5z"/>
	<path class="st0" d="M79.5,5.5h2.7v17.6h10v2.4H79.5L79.5,5.5z"/>
	<path class="st0" d="M105.2,12.4c1.3,1.2,1.9,3.1,1.9,5.5c0,2.3-0.6,4.3-1.7,5.8c-1.1,1.5-2.9,2.3-5.3,2.3c-2,0-3.6-0.7-4.7-2
		s-1.8-3.2-1.8-5.5c0-2.4,0.6-4.4,1.8-5.8c1.2-1.4,2.9-2.2,5-2.2C102.2,10.5,103.9,11.1,105.2,12.4z M103.7,22
		c0.6-1.3,0.9-2.7,0.9-4.1c0-1.4-0.2-2.5-0.6-3.3c-0.7-1.3-1.9-2-3.5-2c-1.5,0-2.6,0.6-3.2,1.7c-0.7,1.1-1,2.5-1,4.1
		c0,1.5,0.3,2.8,1,3.9c0.7,1,1.7,1.5,3.2,1.5C102,23.9,103.1,23.3,103.7,22L103.7,22z"/>
	<path class="st0" d="M111.6,20.9c0.1,0.8,0.3,1.4,0.6,1.9c0.6,0.8,1.7,1.2,3.3,1.2c0.9,0,1.7-0.2,2.4-0.6c0.7-0.4,1.1-1.1,1.1-1.8
		c0-0.6-0.3-1.2-0.8-1.4c-0.4-0.2-1.1-0.4-2.1-0.7l-2-0.5c-1.3-0.3-2.2-0.7-2.8-1c-1.1-0.7-1.6-1.6-1.6-2.7c0-1.3,0.5-2.5,1.5-3.3
		c1-0.9,2.4-1.3,4.1-1.3c2.2,0,3.8,0.6,4.8,1.9c0.6,0.7,0.9,1.7,0.9,2.6h-2.3c0-0.5-0.3-1.1-0.6-1.5c-0.6-0.6-1.6-1-3-1
		c-0.9,0-1.7,0.2-2.1,0.5c-0.5,0.3-0.7,0.8-0.7,1.4c0,0.6,0.3,1.1,1,1.5c0.5,0.3,1.1,0.5,1.6,0.6l1.6,0.4c1.8,0.4,3,0.8,3.6,1.2
		c1,0.6,1.4,1.6,1.4,2.9c0,1.3-0.5,2.5-1.5,3.4c-1,0.9-2.5,1.4-4.5,1.4c-2.2,0-3.7-0.5-4.7-1.5c-0.9-1-1.4-2.3-1.5-3.7L111.6,20.9z"
		/>
	<path class="st0" d="M130.2,5.5h3.1l7.2,20h-3l-2.1-6h-7.8l-2.2,6h-2.8L130.2,5.5z M134.7,17.3l-3.1-8.8l-3.2,8.8H134.7z M134.5,0
		l-3.6,3.9H129l2.5-3.9H134.5z"/>
	<path class="st0" d="M142.6,10.9h2.3V13c0.6-0.8,1.3-1.4,2.2-1.8c0.8-0.4,1.7-0.6,2.6-0.6c2.1,0,3.5,0.7,4.2,2.2
		c0.4,0.8,0.6,1.9,0.6,3.4v9.3H152v-9.2c0-0.7-0.1-1.5-0.4-2.1c-0.4-0.9-1.2-1.4-2.4-1.4c-0.5,0-1,0-1.4,0.2
		c-0.7,0.2-1.3,0.6-1.8,1.2c-0.4,0.4-0.7,0.9-0.8,1.5c-0.1,0.7-0.2,1.5-0.2,2.2v7.6h-2.4V10.9z"/>
	<path class="st0" d="M166.2,11.5c0.5,0.4,1,0.9,1.4,1.4v-1.8h2.3v13.2c0,1.8-0.3,3.3-0.8,4.4c-1,2-2.9,3-5.7,3
		c-1.6,0-2.9-0.4-3.9-1.1c-1.1-0.7-1.7-1.8-1.8-3.3h2.5c0.1,0.6,0.3,1.1,0.7,1.5c0.5,0.5,1.4,0.8,2.6,0.8c1.9,0,3.1-0.7,3.7-2
		c0.3-0.8,0.5-2.2,0.5-4.2c-0.4,0.7-1,1.3-1.8,1.7c-0.7,0.4-1.6,0.5-2.7,0.5c-1.5,0-3-0.6-4.1-1.7c-1.2-1.1-1.8-3-1.8-5.6
		c0-2.4,0.6-4.3,1.8-5.7c1.2-1.4,2.6-2.1,4.3-2.1C164.3,10.6,165.3,10.9,166.2,11.5z M166.5,14.1c-0.7-0.8-1.7-1.3-2.8-1.3
		c-1.7,0-2.9,0.8-3.5,2.4c-0.3,0.9-0.5,2-0.5,3.4c0,1.6,0.3,2.9,1,3.7c0.6,0.8,1.6,1.3,2.7,1.3c1.7,0,3-0.8,3.7-2.4
		c0.4-1,0.6-2.1,0.6-3.1C167.6,16.3,167.2,15,166.5,14.1L166.5,14.1z"/>
	<path class="st0" d="M182.6,11.3c0.9,0.4,1.6,1.1,2.2,1.9c0.5,0.8,0.8,1.7,1,2.6c0.1,0.7,0.2,1.7,0.2,3.2h-10.6
		c0,1.5,0.4,2.7,1,3.6s1.6,1.3,3,1.3c1.3,0,2.3-0.4,3-1.3c0.4-0.5,0.7-1.1,0.9-1.7h2.4c-0.1,0.6-0.3,1.2-0.6,1.8
		c-0.3,0.6-0.7,1.1-1.2,1.6c-0.8,0.7-1.7,1.2-2.7,1.5c-0.6,0.2-1.3,0.2-2,0.2c-1.7,0-3.4-0.7-4.6-2c-1.3-1.3-1.9-3.2-1.9-5.5
		c0-2.3,0.6-4.2,1.9-5.7c1.3-1.5,2.9-2.2,4.9-2.2C180.6,10.6,181.6,10.8,182.6,11.3z M183.4,17c-0.1-1.1-0.3-1.9-0.7-2.5
		c-0.7-1.2-1.8-1.8-3.3-1.8c-1.1,0-2.1,0.4-2.8,1.2c-0.8,0.8-1.2,1.8-1.2,3.1H183.4z"/>
	<path class="st0" d="M189.1,5.5h2.4v20h-2.4V5.5z"/>
	<path class="st0" d="M204.2,11.3c0.9,0.4,1.6,1.1,2.2,1.9c0.5,0.8,0.8,1.7,1,2.6c0.1,0.7,0.2,1.7,0.2,3.2H197c0,1.5,0.4,2.7,1,3.6
		c0.6,0.9,1.6,1.3,3,1.3c1.3,0,2.3-0.4,3-1.3c0.4-0.5,0.7-1.1,0.9-1.7h2.4c-0.1,0.6-0.3,1.2-0.6,1.8c-0.3,0.6-0.7,1.1-1.2,1.6
		c-0.8,0.7-1.7,1.2-2.7,1.5c-0.6,0.2-1.3,0.2-2,0.2c-1.7,0-3.4-0.7-4.6-2c-1.3-1.3-1.9-3.2-1.9-5.5c0-2.3,0.6-4.2,1.9-5.7
		c1.3-1.5,2.9-2.2,4.9-2.2C202.3,10.6,203.3,10.8,204.2,11.3z M205.1,17c-0.1-1.1-0.3-1.9-0.7-2.5c-0.7-1.2-1.8-1.8-3.3-1.8
		c-1.1,0-2.1,0.4-2.8,1.2c-0.8,0.8-1.2,1.8-1.2,3.1H205.1z"/>
	<path class="st0" d="M212.2,20.9c0.1,0.8,0.3,1.4,0.6,1.9c0.6,0.8,1.7,1.2,3.3,1.2c0.9,0,1.7-0.2,2.4-0.6c0.7-0.4,1.1-1.1,1.1-1.8
		c0-0.6-0.3-1.2-0.8-1.4c-0.4-0.2-1.1-0.4-2.1-0.7l-2-0.5c-1.3-0.3-2.2-0.7-2.8-1c-1.1-0.7-1.6-1.6-1.6-2.7c0-1.3,0.5-2.5,1.5-3.3
		c1-0.9,2.4-1.3,4.1-1.3c2.2,0,3.8,0.6,4.8,1.9c0.6,0.7,0.9,1.7,0.9,2.6h-2.3c0-0.5-0.3-1.1-0.6-1.5c-0.6-0.6-1.6-1-3-1
		c-0.9,0-1.7,0.2-2.1,0.5c-0.5,0.3-0.7,0.8-0.7,1.4c0,0.6,0.3,1.1,1,1.5c0.5,0.3,1.1,0.5,1.6,0.6l1.6,0.4c1.8,0.4,3,0.8,3.6,1.2
		c1,0.6,1.4,1.6,1.4,2.9c0,1.3-0.5,2.5-1.5,3.4c-1,0.9-2.5,1.4-4.5,1.4c-2.2,0-3.7-0.5-4.7-1.5c-0.9-1-1.4-2.3-1.5-3.7L212.2,20.9z"
		/>
</g>
</svg>
